<?xml version="1.0" encoding="utf-8"?>
<!-- Svg Vector Icons : http://www.onlinewebfonts.com/icon -->
<!DOCTYPE svg PUBLIC "-//W3C//DTD SVG 1.1//EN" "http://www.w3.org/Graphics/SVG/1.1/DTD/svg11.dtd">
<svg version="1.1" xmlns="http://www.w3.org/2000/svg" xmlns:xlink="http://www.w3.org/1999/xlink" x="0px" y="0px" viewBox="0 0 1000 1000" enable-background="new 0 0 1000 1000" xml:space="preserve">
<metadata> Svg Vector Icons : http://www.onlinewebfonts.com/icon </metadata>
<g><g transform="translate(0.000000,512.000000) scale(0.100000,-0.100000)"><path d="M4646.5,5001.5c-1441.2-151.4-2635.1-1238-2924.5-2661.9c-264.5-1297.4,291.3-3003.1,1634.7-5021.1c467.6-701.4,1100-1517.8,1525.5-1973.9l116.9-124.6l107.3,115c942.9,1013.8,1941.4,2460.7,2502.9,3625.9c636.3,1320.4,856.7,2445.4,666.9,3380.6C7933.2,4024.2,6354.1,5181.7,4646.5,5001.5z M5574.1,4267.5c1042.6-241.5,1809.1-1027.2,2033.3-2083.2c59.4-277.9,59.4-749.3,1.9-1090.5C7389-209.3,6566.8-1778.8,5213.8-3482.5c-111.2-139.9-208.9-251.1-216.6-249.2c-19.2,7.7-231.9,276-490.6,619C3328-1541.2,2601.7-102,2390.9,1084.3c-53.7,308.5-59.4,804.9-11.5,1054c228.1,1161.4,1119.2,2012.3,2274.8,2175.2C4874.6,4344.2,5346,4321.2,5574.1,4267.5z"/><path d="M4656.1,3087c-76.7-17.2-222.3-74.7-325.8-124.6c-153.3-76.7-210.8-120.7-346.9-256.8c-90.1-92-191.6-214.6-228.1-274.1c-289.4-496.4-279.8-1075.1,24.9-1548.5c274.1-421.6,709.1-655.4,1218.9-655.4c519.4,0,962.1,243.4,1234.2,680.3C6839,1881.6,6128,3133,4976.2,3123.4C4874.6,3123.4,4738.5,3108.1,4656.1,3087z M5311.5,2374.1c398.6-185.9,563.4-647.8,369.9-1040.6c-281.7-569.2-1084.7-567.3-1366.4,5.7c-69,138-72.8,155.2-72.8,327.7c1.9,231.9,47.9,360.3,185.9,509.8c176.3,193.6,337.3,260.6,599.8,253C5165.9,2425.8,5221.5,2414.3,5311.5,2374.1z"/></g></g>
</svg>