<svg id="svg" version="1.1" xmlns="http://www.w3.org/2000/svg" xmlns:xlink="http://www.w3.org/1999/xlink" width="400" height="400" viewBox="0, 0, 400,400"><g id="svgg"><path id="path0" d="M394.700 5.618 L 389.600 10.635 389.600 199.638 C 389.600 346.106,389.492 388.748,389.120 389.120 C 388.748 389.492,346.110 389.600,199.657 389.600 L 10.674 389.600 5.936 394.279 C 3.331 396.853,1.344 399.104,1.521 399.281 C 1.884 399.644,399.404 399.530,399.767 399.166 C 399.896 399.038,399.956 309.308,399.900 199.766 L 399.800 0.600 394.700 5.618 M153.600 168.900 C 135.800 199.981,135.883 199.830,134.690 203.232 C 124.088 233.472,155.882 260.408,184.887 245.759 C 197.466 239.406,205.361 224.776,203.588 211.100 C 202.678 204.075,201.414 201.109,194.593 190.000 C 192.229 186.150,189.084 181.020,187.605 178.600 C 186.126 176.180,181.264 168.260,176.800 161.000 C 172.337 153.740,168.396 147.306,168.043 146.703 C 167.689 146.099,167.297 145.604,167.172 145.603 C 167.047 145.601,160.939 156.085,153.600 168.900 M75.688 156.790 C 65.844 159.087,61.626 165.226,61.607 177.284 C 61.599 182.309,61.988 181.772,56.200 184.742 L 51.800 187.000 51.686 190.900 L 51.571 194.800 55.686 194.805 C 57.948 194.808,60.205 194.919,60.700 195.052 L 61.600 195.293 61.600 221.047 L 61.600 246.800 70.200 246.800 L 78.800 246.800 78.800 221.043 C 78.800 197.925,78.865 195.261,79.433 195.043 C 79.781 194.909,83.201 194.800,87.033 194.800 L 94.000 194.800 94.000 188.409 L 94.000 182.018 86.500 181.909 L 79.000 181.800 79.000 178.200 C 79.000 170.454,83.029 168.083,92.580 170.209 C 94.304 170.592,95.803 170.742,95.978 170.547 C 96.994 169.420,100.172 158.764,99.600 158.403 C 96.344 156.346,81.796 155.365,75.688 156.790 M105.200 201.600 L 105.200 246.800 113.800 246.800 L 122.400 246.800 122.400 202.233 C 122.400 177.721,122.291 157.381,122.157 157.033 C 121.947 156.484,120.809 156.400,113.557 156.400 L 105.200 156.400 105.200 201.600 M286.800 157.739 C 281.028 160.677,281.897 170.801,288.091 172.780 C 296.998 175.625,304.418 168.774,300.848 161.000 C 298.985 156.943,291.690 155.249,286.800 157.739 M169.516 182.700 C 171.774 185.924,183.095 204.568,184.131 206.769 C 189.984 219.205,177.419 233.007,164.036 228.842 C 155.388 226.151,150.330 216.939,152.981 208.711 C 153.709 206.452,167.854 181.600,168.412 181.600 C 168.596 181.600,169.092 182.095,169.516 182.700 M206.943 183.100 C 207.076 183.705,212.546 198.240,219.098 215.400 L 231.011 246.600 240.031 246.707 L 249.051 246.815 250.889 241.907 C 251.900 239.208,254.070 233.490,255.710 229.200 C 268.587 195.532,273.200 183.261,273.200 182.677 C 273.200 182.063,272.429 182.000,264.876 182.000 C 256.166 182.000,255.536 182.116,255.090 183.800 C 254.973 184.240,252.144 192.700,248.801 202.600 C 242.916 220.033,240.811 227.377,240.804 230.500 C 240.800 232.189,239.732 232.664,239.456 231.100 C 238.215 224.061,237.205 219.942,235.412 214.600 C 228.488 193.980,224.670 182.940,224.311 182.500 C 224.007 182.128,221.697 182.000,215.301 182.000 L 206.700 182.000 206.943 183.100 M284.100 182.261 C 283.706 182.423,283.600 189.277,283.600 214.633 L 283.600 246.800 292.202 246.800 L 300.805 246.800 300.702 214.500 L 300.600 182.200 292.600 182.127 C 288.200 182.087,284.375 182.147,284.100 182.261 M316.177 182.514 C 316.068 182.801,316.028 185.727,316.089 189.018 L 316.200 195.000 330.100 195.105 C 340.827 195.186,343.997 195.323,343.988 195.705 C 343.977 196.158,338.979 203.048,320.800 227.663 L 314.200 236.600 314.068 241.700 L 313.936 246.800 339.568 246.800 L 365.200 246.800 365.200 240.400 L 365.200 234.000 350.449 234.000 C 339.124 234.000,335.607 233.884,335.306 233.500 C 335.023 233.139,338.956 227.500,349.464 213.200 L 364.015 193.400 363.907 187.800 L 363.800 182.200 340.089 182.097 C 320.911 182.013,316.339 182.093,316.177 182.514 " stroke="none" fill="#fafbfc" fill-rule="evenodd"></path><path id="path1" d="M0.000 199.494 L 0.000 398.989 5.305 393.694 L 10.611 388.400 199.505 388.400 L 388.400 388.400 388.400 199.505 L 388.400 10.611 393.694 5.305 L 398.989 0.000 199.494 0.000 L 0.000 0.000 0.000 199.494 M168.281 145.100 C 168.422 145.485,169.227 146.825,170.069 148.078 C 170.911 149.331,171.600 150.466,171.600 150.600 C 171.600 150.734,172.320 151.904,173.200 153.200 C 174.080 154.496,174.800 155.669,174.800 155.806 C 174.800 155.943,175.340 156.841,176.000 157.800 C 176.660 158.759,177.200 159.737,177.200 159.972 C 177.200 160.207,177.380 160.400,177.600 160.400 C 177.820 160.400,178.000 160.590,178.000 160.822 C 178.000 161.054,178.720 162.304,179.600 163.600 C 180.480 164.896,181.200 166.069,181.200 166.206 C 181.200 166.343,181.740 167.241,182.400 168.200 C 183.060 169.159,183.600 170.137,183.600 170.372 C 183.600 170.607,183.780 170.800,184.000 170.800 C 184.220 170.800,184.400 170.990,184.400 171.222 C 184.400 171.454,185.120 172.704,186.000 174.000 C 186.880 175.296,187.600 176.469,187.600 176.606 C 187.600 176.743,188.140 177.641,188.800 178.600 C 189.460 179.559,190.000 180.457,190.000 180.594 C 190.000 180.731,190.720 181.904,191.600 183.200 C 192.480 184.496,193.200 185.666,193.200 185.800 C 193.200 185.934,193.920 187.104,194.800 188.400 C 195.680 189.696,196.400 190.869,196.400 191.006 C 196.400 191.143,196.940 192.041,197.600 193.000 C 198.260 193.959,198.800 194.937,198.800 195.172 C 198.800 195.407,198.935 195.601,199.100 195.603 C 199.265 195.605,199.598 196.010,199.840 196.503 C 200.083 196.996,200.690 198.210,201.190 199.200 C 201.691 200.190,202.258 201.313,202.450 201.695 C 202.643 202.077,202.800 202.741,202.800 203.171 C 202.800 203.601,202.980 204.064,203.200 204.200 C 203.420 204.336,203.600 204.966,203.600 205.600 C 203.600 206.234,203.758 206.851,203.952 206.970 C 205.203 207.743,204.475 224.612,203.156 225.427 C 202.960 225.548,202.800 225.999,202.800 226.429 C 202.800 226.859,202.643 227.523,202.450 227.905 C 202.258 228.287,201.691 229.410,201.190 230.400 C 200.690 231.390,200.083 232.604,199.840 233.097 C 199.598 233.590,199.265 233.995,199.100 233.997 C 198.935 233.999,198.799 234.225,198.799 234.500 C 198.796 235.362,193.807 240.956,191.391 242.806 C 188.248 245.212,182.447 248.400,181.211 248.400 C 180.838 248.400,180.410 248.523,180.259 248.674 C 179.753 249.180,177.012 249.988,175.780 249.994 C 175.109 249.997,174.370 250.190,174.139 250.421 C 173.341 251.219,159.164 250.451,158.220 249.559 C 158.011 249.362,157.514 249.200,157.115 249.200 C 156.716 249.200,156.077 249.043,155.695 248.850 C 152.928 247.456,151.471 246.800,151.144 246.800 C 149.538 246.800,140.901 239.539,138.775 236.400 C 138.253 235.630,137.614 234.780,137.354 234.512 C 137.094 234.244,136.217 232.624,135.405 230.912 C 134.594 229.200,133.765 227.487,133.565 227.105 C 133.364 226.723,133.200 226.084,133.200 225.685 C 133.200 225.286,133.038 224.789,132.841 224.580 C 131.953 223.640,131.187 209.853,131.978 209.062 C 132.210 208.830,132.400 207.967,132.400 207.144 C 132.400 206.321,132.580 205.536,132.800 205.400 C 133.020 205.264,133.200 204.801,133.200 204.371 C 133.200 203.941,133.359 203.277,133.553 202.895 C 133.748 202.513,134.129 201.660,134.400 201.000 C 134.969 199.615,135.355 198.851,136.499 196.845 C 136.953 196.050,137.834 194.441,138.457 193.268 C 139.080 192.096,139.914 190.656,140.310 190.068 C 140.705 189.481,141.286 188.460,141.600 187.800 C 141.914 187.140,142.472 186.150,142.839 185.600 C 143.206 185.050,143.887 183.925,144.353 183.100 C 144.819 182.275,145.560 180.970,146.000 180.200 C 146.440 179.430,147.160 178.170,147.600 177.400 C 148.040 176.630,148.760 175.370,149.200 174.600 C 149.640 173.830,150.360 172.570,150.800 171.800 C 151.240 171.030,151.960 169.770,152.400 169.000 C 152.840 168.230,153.560 166.970,154.000 166.200 C 154.440 165.430,155.160 164.170,155.600 163.400 C 156.040 162.630,156.760 161.370,157.200 160.600 C 157.640 159.830,158.360 158.570,158.800 157.800 C 159.240 157.030,159.960 155.770,160.400 155.000 C 160.840 154.230,161.560 152.970,162.000 152.200 C 162.440 151.430,163.160 150.170,163.600 149.400 C 164.040 148.630,164.780 147.325,165.244 146.500 C 165.708 145.675,166.169 144.865,166.268 144.700 C 166.612 144.124,168.027 144.405,168.281 145.100 M92.200 155.410 C 93.520 155.553,94.771 155.835,94.980 156.035 C 95.189 156.236,95.943 156.400,96.656 156.400 C 97.369 156.400,98.064 156.580,98.200 156.800 C 98.336 157.020,98.851 157.200,99.344 157.200 C 100.889 157.200,101.989 159.465,100.800 160.200 C 100.580 160.336,100.400 160.876,100.400 161.400 C 100.400 161.924,100.220 162.464,100.000 162.600 C 99.780 162.736,99.600 163.276,99.600 163.800 C 99.600 164.324,99.420 164.864,99.200 165.000 C 98.980 165.136,98.800 165.599,98.800 166.029 C 98.800 166.459,98.641 167.123,98.447 167.505 C 97.757 168.862,97.239 170.211,97.107 171.000 C 96.961 171.868,93.857 171.980,92.347 171.172 C 91.965 170.967,89.757 170.800,87.440 170.800 L 83.227 170.800 81.913 172.125 C 80.363 173.690,79.600 175.952,79.600 178.985 L 79.600 181.183 87.300 181.291 L 95.000 181.400 95.110 188.198 C 95.248 196.692,95.992 196.000,86.726 196.000 L 79.606 196.000 79.503 221.700 L 79.400 247.400 70.000 247.400 L 60.600 247.400 60.497 221.700 L 60.394 196.000 56.847 196.000 C 54.896 196.000,52.737 195.888,52.050 195.750 L 50.800 195.500 50.800 191.012 C 50.800 185.574,50.466 185.937,58.867 182.240 L 60.333 181.594 60.543 176.897 C 60.785 171.488,61.130 168.761,61.641 168.220 C 61.838 168.011,62.000 167.533,62.000 167.158 C 62.000 163.739,69.799 156.400,73.433 156.400 C 73.939 156.400,74.464 156.220,74.600 156.000 C 74.736 155.780,75.602 155.597,76.524 155.594 C 77.446 155.591,78.470 155.408,78.800 155.188 C 79.414 154.780,87.652 154.916,92.200 155.410 M123.120 156.080 C 123.879 156.839,123.810 246.528,123.050 247.159 C 122.664 247.479,119.763 247.583,113.350 247.508 L 104.200 247.400 104.090 202.400 C 104.030 177.650,104.078 156.995,104.198 156.500 L 104.415 155.600 113.528 155.600 C 120.082 155.600,122.775 155.735,123.120 156.080 M296.200 156.000 C 296.336 156.220,296.872 156.400,297.392 156.400 C 298.662 156.400,302.000 159.738,302.000 161.008 C 302.000 161.528,302.180 162.064,302.400 162.200 C 303.527 162.897,302.636 168.055,300.909 170.832 C 298.233 175.135,288.545 175.606,284.300 171.639 C 283.475 170.868,282.800 169.925,282.800 169.542 C 282.800 169.160,282.620 168.736,282.400 168.600 C 282.180 168.464,282.000 166.844,282.000 165.000 C 282.000 163.156,282.180 161.536,282.400 161.400 C 282.620 161.264,282.800 160.816,282.800 160.404 C 282.800 159.455,285.762 156.860,287.600 156.199 C 289.295 155.589,295.852 155.438,296.200 156.000 M225.486 182.600 C 226.650 184.800,226.800 185.184,226.800 185.971 C 226.800 186.401,226.980 186.864,227.200 187.000 C 227.420 187.136,227.600 187.676,227.600 188.200 C 227.600 188.724,227.780 189.264,228.000 189.400 C 228.220 189.536,228.400 190.076,228.400 190.600 C 228.400 191.124,228.580 191.664,228.800 191.800 C 229.020 191.936,229.200 192.476,229.200 193.000 C 229.200 193.524,229.380 194.064,229.600 194.200 C 229.820 194.336,230.000 194.876,230.000 195.400 C 230.000 195.924,230.180 196.464,230.400 196.600 C 230.620 196.736,230.800 197.276,230.800 197.800 C 230.800 198.324,230.980 198.864,231.200 199.000 C 231.420 199.136,231.600 199.676,231.600 200.200 C 231.600 200.724,231.780 201.264,232.000 201.400 C 232.220 201.536,232.400 202.051,232.400 202.544 C 232.400 203.037,232.548 203.611,232.728 203.820 C 232.908 204.029,233.481 205.550,234.000 207.200 C 234.519 208.850,235.092 210.371,235.272 210.580 C 235.452 210.789,235.600 211.363,235.600 211.856 C 235.600 212.349,235.780 212.864,236.000 213.000 C 236.220 213.136,236.400 213.676,236.400 214.200 C 236.400 214.724,236.580 215.264,236.800 215.400 C 237.020 215.536,237.200 216.076,237.200 216.600 C 237.200 217.124,237.380 217.664,237.600 217.800 C 237.820 217.936,238.000 218.566,238.000 219.200 C 238.000 219.834,238.160 220.452,238.356 220.573 C 238.699 220.785,238.978 222.011,239.456 225.400 C 239.775 227.663,240.400 228.129,240.400 226.104 C 240.400 225.193,240.580 224.336,240.800 224.200 C 241.020 224.064,241.200 223.344,241.200 222.600 C 241.200 221.856,241.380 221.136,241.600 221.000 C 241.820 220.864,242.000 220.234,242.000 219.600 C 242.000 218.966,242.180 218.336,242.400 218.200 C 242.620 218.064,242.800 217.524,242.800 217.000 C 242.800 216.476,242.980 215.936,243.200 215.800 C 243.420 215.664,243.600 215.124,243.600 214.600 C 243.600 214.076,243.780 213.536,244.000 213.400 C 244.220 213.264,244.400 212.724,244.400 212.200 C 244.400 211.676,244.580 211.136,244.800 211.000 C 245.020 210.864,245.200 210.401,245.200 209.971 C 245.200 209.541,245.380 208.832,245.600 208.395 C 245.820 207.958,246.180 207.242,246.400 206.805 C 246.620 206.368,246.800 205.659,246.800 205.229 C 246.800 204.799,246.980 204.336,247.200 204.200 C 247.420 204.064,247.600 203.524,247.600 203.000 C 247.600 202.476,247.780 201.936,248.000 201.800 C 248.220 201.664,248.400 201.124,248.400 200.600 C 248.400 200.076,248.580 199.536,248.800 199.400 C 249.020 199.264,249.200 198.724,249.200 198.200 C 249.200 197.676,249.380 197.136,249.600 197.000 C 249.820 196.864,250.000 196.324,250.000 195.800 C 250.000 195.276,250.180 194.736,250.400 194.600 C 250.620 194.464,250.800 193.924,250.800 193.400 C 250.800 192.876,250.980 192.336,251.200 192.200 C 251.420 192.064,251.600 191.524,251.600 191.000 C 251.600 190.476,251.780 189.936,252.000 189.800 C 252.220 189.664,252.400 189.124,252.400 188.600 C 252.400 188.076,252.580 187.536,252.800 187.400 C 253.020 187.264,253.200 186.724,253.200 186.200 C 253.200 185.676,253.380 185.136,253.600 185.000 C 253.820 184.864,254.000 184.397,254.000 183.962 C 254.000 183.528,254.291 182.728,254.646 182.186 L 255.292 181.200 264.822 181.200 C 274.801 181.200,275.268 181.284,274.488 182.938 C 274.264 183.412,273.864 184.430,273.600 185.200 C 273.336 185.970,272.957 187.005,272.760 187.500 C 270.961 192.002,270.738 192.539,270.353 193.295 C 270.159 193.677,270.000 194.264,270.000 194.600 C 270.000 194.936,269.841 195.523,269.647 195.905 C 269.452 196.287,269.092 197.095,268.847 197.700 C 268.601 198.305,268.199 199.295,267.953 199.900 C 267.708 200.505,267.348 201.313,267.153 201.695 C 266.959 202.077,266.800 202.664,266.800 203.000 C 266.800 203.336,266.641 203.923,266.447 204.305 C 266.252 204.687,265.892 205.495,265.647 206.100 C 265.401 206.705,264.999 207.695,264.753 208.300 C 264.508 208.905,264.148 209.713,263.953 210.095 C 263.759 210.477,263.600 211.064,263.600 211.400 C 263.600 211.736,263.441 212.323,263.247 212.705 C 263.052 213.087,262.716 213.850,262.500 214.400 C 261.811 216.154,261.117 217.779,260.753 218.495 C 260.559 218.877,260.400 219.464,260.400 219.800 C 260.400 220.136,260.241 220.723,260.047 221.105 C 259.852 221.487,259.492 222.295,259.247 222.900 C 259.001 223.505,258.599 224.495,258.353 225.100 C 258.108 225.705,257.748 226.513,257.553 226.895 C 257.359 227.277,257.200 227.864,257.200 228.200 C 257.200 228.536,257.041 229.123,256.847 229.505 C 256.652 229.887,256.316 230.650,256.100 231.200 C 255.411 232.954,254.717 234.579,254.353 235.295 C 254.159 235.677,254.000 236.264,254.000 236.600 C 254.000 236.936,253.841 237.523,253.647 237.905 C 253.452 238.287,253.092 239.095,252.847 239.700 C 252.601 240.305,252.199 241.295,251.953 241.900 C 251.708 242.505,251.348 243.313,251.153 243.695 C 250.959 244.077,250.800 244.668,250.800 245.009 C 250.800 245.349,250.509 246.072,250.154 246.614 L 249.508 247.600 239.973 247.600 L 230.438 247.600 229.778 246.100 C 229.415 245.275,228.936 244.150,228.713 243.600 C 228.489 243.050,228.148 242.287,227.953 241.905 C 227.759 241.523,227.600 240.936,227.600 240.600 C 227.600 240.264,227.441 239.677,227.247 239.295 C 227.052 238.913,226.716 238.150,226.500 237.600 C 226.284 237.050,225.921 236.150,225.694 235.600 C 225.467 235.050,225.064 233.970,224.800 233.200 C 224.536 232.430,224.157 231.395,223.960 230.900 C 222.161 226.398,221.938 225.861,221.553 225.105 C 221.359 224.723,221.200 224.136,221.200 223.800 C 221.200 223.464,221.041 222.877,220.847 222.495 C 220.520 221.851,220.165 221.015,219.240 218.700 C 219.043 218.205,218.664 217.170,218.400 216.400 C 218.136 215.630,217.733 214.550,217.506 214.000 C 217.049 212.893,216.497 211.520,215.900 210.000 C 215.684 209.450,215.348 208.687,215.153 208.305 C 214.959 207.923,214.800 207.336,214.800 207.000 C 214.800 206.664,214.641 206.077,214.447 205.695 C 214.252 205.313,213.916 204.550,213.700 204.000 C 213.484 203.450,213.121 202.550,212.894 202.000 C 212.667 201.450,212.264 200.370,212.000 199.600 C 211.736 198.830,211.357 197.795,211.160 197.300 C 209.361 192.798,209.138 192.261,208.753 191.505 C 208.559 191.123,208.400 190.536,208.400 190.200 C 208.400 189.864,208.241 189.277,208.047 188.895 C 207.705 188.222,207.175 186.963,206.450 185.100 C 206.257 184.605,205.895 183.692,205.645 183.070 C 204.899 181.218,205.103 181.180,215.253 181.293 L 224.851 181.400 225.486 182.600 M301.800 214.400 L 301.800 247.400 292.400 247.400 L 283.000 247.400 282.897 214.800 C 282.840 196.870,282.880 181.972,282.987 181.693 C 283.137 181.299,285.259 181.209,292.490 181.293 L 301.800 181.400 301.800 214.400 M365.111 187.367 L 365.222 193.334 363.519 195.767 C 361.882 198.106,357.277 204.347,356.256 205.609 C 355.985 205.944,355.147 207.114,354.394 208.209 C 353.104 210.084,348.534 216.277,347.456 217.609 C 347.185 217.944,346.347 219.114,345.594 220.209 C 344.343 222.027,339.821 228.160,338.669 229.600 C 337.678 230.839,336.400 232.732,336.400 232.962 C 336.400 233.093,343.064 233.200,351.209 233.200 L 366.018 233.200 365.909 240.300 L 365.800 247.400 339.600 247.400 L 313.400 247.400 313.299 241.800 L 313.197 236.200 316.618 231.600 C 318.499 229.070,320.263 226.726,320.538 226.391 C 320.812 226.056,321.653 224.886,322.406 223.791 C 323.696 221.916,328.266 215.723,329.344 214.391 C 329.615 214.056,330.437 212.908,331.172 211.841 C 332.458 209.972,339.473 200.511,340.599 199.126 C 340.900 198.756,341.450 197.991,341.819 197.426 L 342.492 196.400 329.126 196.400 C 319.264 196.400,315.634 196.274,315.280 195.920 C 314.760 195.400,314.565 181.969,315.070 181.464 C 315.218 181.315,326.513 181.240,340.170 181.297 L 365.000 181.400 365.111 187.367 M168.117 183.669 C 167.880 183.961,167.306 184.875,166.843 185.700 C 166.379 186.525,165.640 187.830,165.200 188.600 C 164.760 189.370,164.040 190.630,163.600 191.400 C 163.160 192.170,162.440 193.430,162.000 194.200 C 161.560 194.970,160.821 196.275,160.357 197.100 C 159.894 197.925,159.373 198.780,159.200 199.000 C 159.027 199.220,158.506 200.075,158.043 200.900 C 157.579 201.725,156.857 203.005,156.438 203.745 C 155.715 205.019,155.326 205.756,154.400 207.595 C 154.180 208.032,154.000 208.741,154.000 209.171 C 154.000 209.601,153.820 210.064,153.600 210.200 C 153.055 210.537,153.094 215.010,153.656 216.772 C 155.374 222.152,160.384 227.600,163.614 227.600 C 164.020 227.600,164.464 227.780,164.600 228.000 C 164.911 228.502,172.562 228.531,173.505 228.034 C 173.887 227.832,174.840 227.390,175.622 227.052 C 178.727 225.708,183.586 220.511,183.596 218.524 C 183.598 218.042,183.780 217.536,184.000 217.400 C 184.492 217.096,184.535 209.857,184.050 208.895 C 183.858 208.513,183.345 207.480,182.912 206.600 C 181.839 204.423,180.461 202.017,179.553 200.738 C 179.139 200.154,178.800 199.479,178.800 199.238 C 178.800 198.997,178.620 198.800,178.400 198.800 C 178.180 198.800,178.000 198.610,178.000 198.378 C 178.000 198.146,177.280 196.896,176.400 195.600 C 175.520 194.304,174.800 193.136,174.800 193.004 C 174.800 192.872,173.941 191.467,172.890 189.882 C 171.840 188.297,170.752 186.550,170.472 186.000 C 169.415 183.920,168.583 183.097,168.117 183.669 " stroke="none" fill="#3cb4fc" fill-rule="evenodd"></path><path id="path2" d="M394.081 5.333 L 388.800 10.666 388.800 199.733 L 388.800 388.800 199.824 388.800 C 95.887 388.800,10.764 388.935,10.662 389.100 C 10.560 389.265,95.644 389.310,199.738 389.200 L 389.000 389.000 389.200 199.706 L 389.400 10.412 394.594 5.206 C 397.451 2.343,399.692 0.000,399.575 0.000 C 399.458 0.000,396.985 2.400,394.081 5.333 M164.653 148.500 L 163.933 149.800 164.758 148.800 C 165.489 147.913,165.814 147.200,165.486 147.200 C 165.424 147.200,165.049 147.785,164.653 148.500 M168.809 147.500 C 168.814 147.665,169.185 148.250,169.633 148.800 L 170.448 149.800 169.814 148.500 C 169.211 147.265,168.789 146.845,168.809 147.500 M172.600 153.600 C 172.941 154.260,173.311 154.800,173.421 154.800 C 173.531 154.800,173.341 154.260,173.000 153.600 C 172.659 152.940,172.289 152.400,172.179 152.400 C 172.069 152.400,172.259 152.940,172.600 153.600 M161.453 154.100 L 160.733 155.400 161.558 154.400 C 162.289 153.513,162.614 152.800,162.286 152.800 C 162.224 152.800,161.849 153.385,161.453 154.100 M79.600 155.553 C 78.830 155.689,80.980 155.800,84.377 155.800 C 87.775 155.800,90.025 155.686,89.377 155.547 C 87.876 155.225,81.435 155.229,79.600 155.553 M159.800 156.800 C 159.459 157.460,159.269 158.000,159.379 158.000 C 159.489 158.000,159.859 157.460,160.200 156.800 C 160.541 156.140,160.731 155.600,160.621 155.600 C 160.511 155.600,160.141 156.140,159.800 156.800 M74.600 156.400 C 74.096 156.617,74.022 156.744,74.400 156.744 C 74.730 156.744,75.360 156.589,75.800 156.400 C 76.304 156.183,76.378 156.056,76.000 156.056 C 75.670 156.056,75.040 156.211,74.600 156.400 M93.400 156.400 C 93.840 156.589,94.560 156.744,95.000 156.744 L 95.800 156.744 95.000 156.400 C 94.560 156.211,93.840 156.056,93.400 156.056 L 92.600 156.056 93.400 156.400 M122.400 201.720 L 122.600 247.400 122.702 202.022 C 122.758 177.064,122.668 156.508,122.502 156.342 C 122.336 156.176,122.290 176.596,122.400 201.720 M288.715 156.328 C 288.338 156.478,289.906 156.600,292.200 156.600 C 294.494 156.600,296.062 156.478,295.685 156.328 C 295.308 156.179,293.740 156.056,292.200 156.056 C 290.660 156.056,289.092 156.179,288.715 156.328 M174.924 157.400 C 175.262 158.060,175.838 158.960,176.204 159.400 C 176.570 159.840,176.465 159.480,175.970 158.600 C 174.880 156.658,174.064 155.722,174.924 157.400 M104.593 201.800 C 104.593 226.660,104.641 236.771,104.700 224.269 C 104.759 211.767,104.759 191.427,104.700 179.069 C 104.641 166.711,104.593 176.940,104.593 201.800 M285.493 157.814 C 284.672 158.372,284.000 158.925,284.000 159.042 C 284.000 159.159,284.495 158.910,285.100 158.488 C 285.705 158.067,286.560 157.520,287.000 157.273 C 287.440 157.026,287.617 156.819,287.393 156.812 C 287.169 156.805,286.314 157.256,285.493 157.814 M99.734 158.051 C 100.264 158.359,100.406 158.771,100.244 159.539 C 100.032 160.548,100.043 160.557,100.468 159.710 C 100.942 158.762,100.373 157.587,99.451 157.612 C 99.203 157.619,99.330 157.816,99.734 158.051 M158.253 159.700 L 157.533 161.000 158.358 160.000 C 159.089 159.113,159.414 158.400,159.086 158.400 C 159.024 158.400,158.649 158.985,158.253 159.700 M65.480 161.700 C 64.724 162.635,63.898 163.850,63.645 164.400 C 63.255 165.246,63.262 165.284,63.692 164.647 C 63.971 164.232,64.879 163.017,65.709 161.947 C 67.565 159.554,67.377 159.352,65.480 161.700 M156.600 162.400 C 156.259 163.060,156.069 163.600,156.179 163.600 C 156.289 163.600,156.659 163.060,157.000 162.400 C 157.341 161.740,157.531 161.200,157.421 161.200 C 157.311 161.200,156.941 161.740,156.600 162.400 M282.649 161.815 C 282.512 162.173,282.418 162.856,282.441 163.333 C 282.467 163.881,282.603 163.686,282.810 162.803 C 283.160 161.316,283.065 160.733,282.649 161.815 M178.150 162.600 C 178.474 163.260,179.031 164.160,179.389 164.600 C 179.997 165.348,180.001 165.322,179.450 164.200 C 179.126 163.540,178.569 162.640,178.211 162.200 C 177.603 161.452,177.599 161.478,178.150 162.600 M301.800 165.000 C 301.800 166.634,301.922 167.662,302.072 167.285 C 302.221 166.908,302.344 165.880,302.344 165.000 C 302.344 164.120,302.221 163.092,302.072 162.715 C 301.922 162.338,301.800 163.366,301.800 165.000 M155.000 165.200 C 154.659 165.860,154.469 166.400,154.579 166.400 C 154.689 166.400,155.059 165.860,155.400 165.200 C 155.741 164.540,155.931 164.000,155.821 164.000 C 155.711 164.000,155.341 164.540,155.000 165.200 M97.800 166.400 C 97.650 166.873,97.617 167.350,97.727 167.460 C 97.837 167.570,98.050 167.273,98.200 166.800 C 98.350 166.327,98.383 165.850,98.273 165.740 C 98.163 165.630,97.950 165.927,97.800 166.400 M282.406 166.833 C 282.409 167.365,282.589 168.070,282.806 168.400 C 283.082 168.822,283.123 168.585,282.942 167.600 C 282.625 165.875,282.398 165.549,282.406 166.833 M153.400 168.000 C 153.059 168.660,152.869 169.200,152.979 169.200 C 153.089 169.200,153.459 168.660,153.800 168.000 C 154.141 167.340,154.331 166.800,154.221 166.800 C 154.111 166.800,153.741 167.340,153.400 168.000 M181.324 167.800 C 181.662 168.460,182.238 169.360,182.604 169.800 C 182.970 170.240,182.865 169.880,182.370 169.000 C 181.280 167.058,180.464 166.122,181.324 167.800 M283.202 169.433 C 283.203 169.635,283.668 170.340,284.235 171.000 L 285.266 172.200 284.363 170.800 C 283.204 169.004,283.200 168.999,283.202 169.433 M84.479 169.940 C 83.972 170.083,85.232 170.211,87.279 170.224 C 90.039 170.241,90.587 170.170,89.400 169.947 C 87.488 169.587,85.736 169.585,84.479 169.940 M151.800 170.800 C 151.459 171.460,151.269 172.000,151.379 172.000 C 151.489 172.000,151.859 171.460,152.200 170.800 C 152.541 170.140,152.731 169.600,152.621 169.600 C 152.511 169.600,152.141 170.140,151.800 170.800 M92.600 170.800 C 93.040 170.989,93.670 171.144,94.000 171.144 C 94.378 171.144,94.304 171.017,93.800 170.800 C 93.360 170.611,92.730 170.456,92.400 170.456 C 92.022 170.456,92.096 170.583,92.600 170.800 M61.054 173.456 C 60.914 174.477,60.800 176.691,60.800 178.376 C 60.800 180.061,60.621 181.657,60.401 181.921 C 60.150 182.225,60.206 182.218,60.554 181.901 C 60.941 181.550,61.169 179.933,61.315 176.500 C 61.538 171.287,61.466 170.451,61.054 173.456 M184.000 172.129 C 184.000 172.494,186.045 175.600,186.286 175.600 C 186.479 175.600,184.892 172.848,184.336 172.220 C 184.151 172.011,184.000 171.970,184.000 172.129 M150.200 173.600 C 149.859 174.260,149.669 174.800,149.779 174.800 C 149.889 174.800,150.259 174.260,150.600 173.600 C 150.941 172.940,151.131 172.400,151.021 172.400 C 150.911 172.400,150.541 172.940,150.200 173.600 M291.305 173.887 C 291.914 173.979,292.814 173.977,293.305 173.882 C 293.797 173.787,293.300 173.711,292.200 173.714 C 291.100 173.717,290.697 173.795,291.305 173.887 M148.600 176.400 C 148.259 177.060,148.069 177.600,148.179 177.600 C 148.289 177.600,148.659 177.060,149.000 176.400 C 149.341 175.740,149.531 175.200,149.421 175.200 C 149.311 175.200,148.941 175.740,148.600 176.400 M187.724 178.200 C 188.062 178.860,188.638 179.760,189.004 180.200 C 189.370 180.640,189.265 180.280,188.770 179.400 C 187.680 177.458,186.864 176.522,187.724 178.200 M147.000 179.200 C 146.659 179.860,146.469 180.400,146.579 180.400 C 146.689 180.400,147.059 179.860,147.400 179.200 C 147.741 178.540,147.931 178.000,147.821 178.000 C 147.711 178.000,147.341 178.540,147.000 179.200 M145.400 182.000 C 145.059 182.660,144.869 183.200,144.979 183.200 C 145.089 183.200,145.459 182.660,145.800 182.000 C 146.141 181.340,146.331 180.800,146.221 180.800 C 146.111 180.800,145.741 181.340,145.400 182.000 M94.399 188.319 L 94.598 195.000 94.709 188.631 C 94.771 185.127,94.681 182.121,94.511 181.949 C 94.340 181.778,94.289 184.644,94.399 188.319 M254.849 182.652 C 254.586 183.230,254.467 183.800,254.585 183.918 C 254.703 184.037,254.800 183.923,254.800 183.667 C 254.800 183.410,255.160 182.840,255.600 182.400 C 256.137 181.863,256.224 181.600,255.864 181.600 C 255.570 181.600,255.113 182.073,254.849 182.652 M300.705 182.082 C 301.104 182.565,301.187 189.449,301.105 214.947 C 301.047 232.686,301.136 247.200,301.302 247.200 C 301.954 247.200,301.453 181.884,300.800 181.668 C 300.305 181.505,300.288 181.577,300.705 182.082 M315.467 181.867 C 314.725 182.608,315.189 195.166,315.974 195.586 C 316.473 195.853,321.541 195.968,330.274 195.910 L 343.800 195.820 329.800 195.597 C 322.100 195.474,315.755 195.335,315.700 195.287 C 315.313 194.950,315.671 182.489,316.080 182.080 C 316.367 181.793,316.394 181.600,316.147 181.600 C 315.919 181.600,315.613 181.720,315.467 181.867 M363.921 182.102 C 364.309 182.572,364.412 184.174,364.321 188.348 C 364.255 191.436,364.340 193.822,364.511 193.650 C 365.135 193.023,364.660 181.885,364.000 181.668 C 363.497 181.502,363.484 181.572,363.921 182.102 M167.259 183.700 C 166.770 184.635,166.602 185.064,166.885 184.653 C 168.668 182.064,168.579 182.080,169.779 184.129 C 170.891 186.026,171.621 186.751,170.757 185.100 C 168.966 181.676,168.429 181.461,167.259 183.700 M190.409 182.700 C 190.414 182.865,190.785 183.450,191.233 184.000 L 192.048 185.000 191.414 183.700 C 190.811 182.465,190.389 182.045,190.409 182.700 M143.800 184.800 C 143.459 185.460,143.269 186.000,143.379 186.000 C 143.489 186.000,143.859 185.460,144.200 184.800 C 144.541 184.140,144.731 183.600,144.621 183.600 C 144.511 183.600,144.141 184.140,143.800 184.800 M53.100 185.429 C 51.549 186.270,51.725 186.561,53.300 185.759 C 54.808 184.993,55.075 184.794,54.567 184.816 C 54.365 184.825,53.705 185.101,53.100 185.429 M165.400 186.800 C 165.059 187.460,164.869 188.000,164.979 188.000 C 165.089 188.000,165.459 187.460,165.800 186.800 C 166.141 186.140,166.331 185.600,166.221 185.600 C 166.111 185.600,165.741 186.140,165.400 186.800 M172.830 189.000 C 173.324 189.880,173.900 190.780,174.110 191.000 C 174.709 191.628,173.339 189.094,172.596 188.200 C 172.230 187.760,172.335 188.120,172.830 189.000 M194.200 188.800 C 194.541 189.460,194.911 190.000,195.021 190.000 C 195.131 190.000,194.941 189.460,194.600 188.800 C 194.259 188.140,193.889 187.600,193.779 187.600 C 193.669 187.600,193.859 188.140,194.200 188.800 M163.800 189.600 C 163.459 190.260,163.269 190.800,163.379 190.800 C 163.489 190.800,163.859 190.260,164.200 189.600 C 164.541 188.940,164.731 188.400,164.621 188.400 C 164.511 188.400,164.141 188.940,163.800 189.600 M140.600 190.400 C 140.259 191.060,140.069 191.600,140.179 191.600 C 140.289 191.600,140.659 191.060,141.000 190.400 C 141.341 189.740,141.531 189.200,141.421 189.200 C 141.311 189.200,140.941 189.740,140.600 190.400 M162.214 192.235 C 161.841 192.804,161.605 193.338,161.689 193.422 C 161.773 193.507,162.158 193.041,162.544 192.388 C 163.406 190.928,163.148 190.809,162.214 192.235 M196.524 192.600 C 196.862 193.260,197.438 194.160,197.804 194.600 C 198.170 195.040,198.065 194.680,197.570 193.800 C 196.480 191.858,195.664 190.922,196.524 192.600 M176.030 194.200 C 176.524 195.080,177.100 195.980,177.310 196.200 C 177.909 196.828,176.539 194.294,175.796 193.400 C 175.430 192.960,175.535 193.320,176.030 194.200 M362.575 195.868 C 361.959 196.676,361.659 197.211,361.909 197.056 C 362.421 196.740,364.153 194.400,363.875 194.400 C 363.776 194.400,363.191 195.061,362.575 195.868 M56.500 195.493 L 60.800 195.626 60.800 221.413 C 60.800 235.596,60.935 247.200,61.100 247.200 C 61.265 247.200,61.310 235.545,61.200 221.300 L 61.000 195.400 56.600 195.380 L 52.200 195.361 56.500 195.493 M82.921 195.498 C 85.077 195.571,88.497 195.570,90.521 195.498 C 92.544 195.425,90.780 195.366,86.600 195.367 C 82.420 195.367,80.764 195.426,82.921 195.498 M342.206 197.488 L 341.504 198.600 342.430 197.711 C 342.939 197.222,343.255 196.722,343.132 196.599 C 343.009 196.476,342.592 196.876,342.206 197.488 M135.800 198.800 C 135.459 199.460,135.269 200.000,135.379 200.000 C 135.489 200.000,135.859 199.460,136.200 198.800 C 136.541 198.140,136.731 197.600,136.621 197.600 C 136.511 197.600,136.141 198.140,135.800 198.800 M158.200 199.200 C 157.859 199.860,157.669 200.400,157.779 200.400 C 157.889 200.400,158.259 199.860,158.600 199.200 C 158.941 198.540,159.131 198.000,159.021 198.000 C 158.911 198.000,158.541 198.540,158.200 199.200 M200.678 199.795 C 201.044 200.562,201.414 201.119,201.501 201.032 C 201.684 200.849,200.470 198.400,200.196 198.400 C 200.095 198.400,200.312 199.028,200.678 199.795 M340.227 200.200 C 339.640 200.970,339.303 201.598,339.480 201.595 C 339.656 201.592,340.207 200.962,340.704 200.195 C 341.868 198.397,341.600 198.400,340.227 200.200 M359.944 199.500 C 358.793 200.889,358.306 201.600,358.504 201.600 C 358.614 201.600,359.186 200.970,359.773 200.200 C 360.863 198.771,360.995 198.232,359.944 199.500 M180.030 200.600 C 180.524 201.480,181.100 202.380,181.310 202.600 C 181.909 203.228,180.539 200.694,179.796 199.800 C 179.430 199.360,179.535 199.720,180.030 200.600 M156.600 202.000 C 156.259 202.660,156.069 203.200,156.179 203.200 C 156.289 203.200,156.659 202.660,157.000 202.000 C 157.341 201.340,157.531 200.800,157.421 200.800 C 157.311 200.800,156.941 201.340,156.600 202.000 M357.529 202.700 C 356.488 203.924,355.028 206.154,355.430 205.905 C 355.877 205.629,358.532 202.000,358.287 202.000 C 358.197 202.000,357.856 202.315,357.529 202.700 M336.975 204.668 C 336.359 205.476,336.059 206.011,336.309 205.856 C 336.821 205.540,338.553 203.200,338.275 203.200 C 338.176 203.200,337.591 203.861,336.975 204.668 M155.000 204.800 C 154.659 205.460,154.469 206.000,154.579 206.000 C 154.689 206.000,155.059 205.460,155.400 204.800 C 155.741 204.140,155.931 203.600,155.821 203.600 C 155.711 203.600,155.341 204.140,155.000 204.800 M133.029 206.229 C 132.881 206.815,132.838 207.372,132.932 207.466 C 133.027 207.560,133.224 207.158,133.371 206.571 C 133.519 205.985,133.562 205.428,133.468 205.334 C 133.373 205.240,133.176 205.642,133.029 206.229 M354.344 207.100 C 353.075 208.632,352.619 209.342,353.081 209.065 C 353.593 208.758,355.369 206.400,355.089 206.400 C 354.998 206.400,354.663 206.715,354.344 207.100 M203.268 207.200 C 203.288 208.239,203.918 209.946,203.932 209.000 C 203.938 208.560,203.789 207.840,203.600 207.400 C 203.389 206.910,203.261 206.832,203.268 207.200 M334.344 208.300 C 333.193 209.689,332.706 210.400,332.904 210.400 C 333.014 210.400,333.586 209.770,334.173 209.000 C 335.263 207.571,335.395 207.032,334.344 208.300 M233.612 208.400 C 233.612 208.730,233.787 209.270,234.000 209.600 C 234.345 210.133,234.388 210.133,234.388 209.600 C 234.388 209.270,234.213 208.730,234.000 208.400 C 233.655 207.867,233.612 207.867,233.612 208.400 M132.253 209.636 C 132.114 210.331,132.022 211.463,132.049 212.150 C 132.078 212.894,132.238 212.440,132.443 211.028 C 132.811 208.504,132.676 207.518,132.253 209.636 M352.115 210.100 C 350.381 212.367,349.466 213.720,349.809 213.513 C 350.281 213.227,352.937 209.600,352.674 209.600 C 352.577 209.600,352.326 209.825,352.115 210.100 M184.800 213.200 C 184.800 214.813,184.909 216.024,185.043 215.890 C 185.336 215.597,185.305 210.772,185.008 210.475 C 184.894 210.360,184.800 211.587,184.800 213.200 M245.000 211.600 C 244.850 212.073,244.817 212.550,244.927 212.660 C 245.037 212.770,245.250 212.473,245.400 212.000 C 245.550 211.527,245.583 211.050,245.473 210.940 C 245.363 210.830,245.150 211.127,245.000 211.600 M331.375 212.268 C 330.759 213.076,330.459 213.611,330.709 213.456 C 331.221 213.140,332.953 210.800,332.675 210.800 C 332.576 210.800,331.991 211.461,331.375 212.268 M204.134 214.800 C 204.134 216.450,204.205 217.125,204.291 216.300 C 204.378 215.475,204.378 214.125,204.291 213.300 C 204.205 212.475,204.134 213.150,204.134 214.800 M348.744 214.700 C 347.475 216.232,347.019 216.942,347.481 216.665 C 347.993 216.358,349.769 214.000,349.489 214.000 C 349.398 214.000,349.063 214.315,348.744 214.700 M328.175 216.668 C 327.559 217.476,327.259 218.011,327.509 217.856 C 328.021 217.540,329.753 215.200,329.475 215.200 C 329.376 215.200,328.791 215.861,328.175 216.668 M132.028 218.033 C 132.044 219.005,132.206 220.160,132.390 220.600 C 132.592 221.083,132.638 220.449,132.507 219.000 C 132.245 216.110,131.989 215.593,132.028 218.033 M326.515 218.900 C 324.781 221.167,323.866 222.520,324.209 222.313 C 324.681 222.027,327.337 218.400,327.074 218.400 C 326.977 218.400,326.726 218.625,326.515 218.900 M345.544 219.100 C 344.275 220.632,343.819 221.342,344.281 221.065 C 344.793 220.758,346.569 218.400,346.289 218.400 C 346.198 218.400,345.863 218.715,345.544 219.100 M182.381 221.689 C 181.621 222.839,180.048 224.549,178.885 225.489 C 177.722 226.430,176.926 227.200,177.117 227.200 C 177.833 227.200,182.236 222.843,183.126 221.254 C 184.404 218.969,184.038 219.183,182.381 221.689 M203.450 221.250 C 203.117 222.917,203.440 223.240,203.800 221.600 C 203.952 220.909,203.993 220.259,203.891 220.158 C 203.789 220.056,203.591 220.547,203.450 221.250 M237.656 220.400 C 237.656 220.730,237.811 221.360,238.000 221.800 C 238.217 222.304,238.344 222.378,238.344 222.000 C 238.344 221.670,238.189 221.040,238.000 220.600 C 237.783 220.096,237.656 220.022,237.656 220.400 M343.315 222.100 C 341.581 224.367,340.666 225.720,341.009 225.513 C 341.481 225.227,344.137 221.600,343.874 221.600 C 343.777 221.600,343.526 221.825,343.315 222.100 M155.930 223.100 C 156.361 223.705,157.128 224.560,157.634 225.000 C 158.140 225.440,157.851 224.945,156.992 223.900 C 155.273 221.808,154.703 221.379,155.930 223.100 M323.144 223.500 C 321.875 225.032,321.419 225.742,321.881 225.465 C 322.393 225.158,324.169 222.800,323.889 222.800 C 323.798 222.800,323.463 223.115,323.144 223.500 M238.468 223.600 C 238.488 224.639,239.118 226.346,239.132 225.400 C 239.138 224.960,238.989 224.240,238.800 223.800 C 238.589 223.310,238.461 223.232,238.468 223.600 M241.029 225.029 C 240.881 225.615,240.838 226.172,240.932 226.266 C 241.027 226.360,241.224 225.958,241.371 225.371 C 241.519 224.785,241.562 224.228,241.468 224.134 C 241.373 224.040,241.176 224.442,241.029 225.029 M339.944 226.700 C 338.675 228.232,338.219 228.942,338.681 228.665 C 339.193 228.358,340.969 226.000,340.689 226.000 C 340.598 226.000,340.263 226.315,339.944 226.700 M239.225 227.674 C 239.211 228.045,239.390 228.849,239.623 229.460 C 240.088 230.684,240.788 230.168,240.788 228.600 C 240.788 227.950,240.718 227.910,240.414 228.390 C 240.110 228.872,239.969 228.799,239.646 227.990 C 239.385 227.338,239.242 227.230,239.225 227.674 M319.944 227.900 C 318.675 229.432,318.219 230.142,318.681 229.865 C 319.193 229.558,320.969 227.200,320.689 227.200 C 320.598 227.200,320.263 227.515,319.944 227.900 M167.511 229.093 C 168.451 229.178,169.891 229.177,170.711 229.091 C 171.530 229.005,170.760 228.936,169.000 228.937 C 167.240 228.939,166.570 229.009,167.511 229.093 M199.800 231.600 C 199.459 232.260,199.269 232.800,199.379 232.800 C 199.489 232.800,199.859 232.260,200.200 231.600 C 200.541 230.940,200.731 230.400,200.621 230.400 C 200.511 230.400,200.141 230.940,199.800 231.600 M316.975 231.868 C 316.359 232.676,316.059 233.211,316.309 233.056 C 316.821 232.740,318.553 230.400,318.275 230.400 C 318.176 230.400,317.591 231.061,316.975 231.868 M336.220 231.738 C 335.659 232.474,335.200 233.194,335.200 233.338 C 335.200 233.482,341.815 233.557,349.900 233.505 L 364.600 233.410 350.083 233.300 L 335.567 233.190 336.631 231.795 C 337.216 231.028,337.593 230.400,337.468 230.400 C 337.343 230.400,336.782 231.002,336.220 231.738 M314.221 235.577 C 313.834 236.004,313.612 236.589,313.727 236.877 C 313.889 237.280,313.944 237.269,313.968 236.831 C 313.986 236.519,314.298 235.934,314.662 235.531 C 315.026 235.129,315.234 234.800,315.124 234.800 C 315.014 234.800,314.608 235.150,314.221 235.577 M139.130 236.300 C 139.561 236.905,140.328 237.760,140.834 238.200 C 141.340 238.640,141.051 238.145,140.192 237.100 C 138.473 235.008,137.903 234.579,139.130 236.300 M194.227 239.113 C 192.171 241.373,191.795 241.896,193.159 240.600 C 195.044 238.809,197.877 235.580,197.534 235.613 C 197.460 235.620,195.972 237.195,194.227 239.113 M145.869 242.832 C 146.366 243.433,148.800 244.964,148.800 244.676 C 148.800 244.583,148.035 244.002,147.100 243.385 C 146.165 242.768,145.611 242.520,145.869 242.832 M188.687 243.768 C 186.326 245.402,185.764 245.975,187.506 244.972 C 188.850 244.199,191.156 242.423,190.800 242.436 C 190.690 242.441,189.739 243.040,188.687 243.768 M176.600 249.200 C 176.096 249.417,176.022 249.544,176.400 249.544 C 176.730 249.544,177.360 249.389,177.800 249.200 C 178.304 248.983,178.378 248.856,178.000 248.856 C 177.670 248.856,177.040 249.011,176.600 249.200 M162.400 249.980 C 163.399 250.320,165.882 250.532,165.567 250.251 C 165.475 250.169,164.500 249.999,163.400 249.872 C 162.051 249.716,161.726 249.751,162.400 249.980 M172.200 250.000 L 170.600 250.286 172.000 250.315 C 172.770 250.331,173.760 250.189,174.200 250.000 C 175.143 249.595,174.462 249.595,172.200 250.000 M4.800 394.600 C 2.057 397.350,-0.011 399.575,0.206 399.543 C 0.607 399.486,10.321 389.600,9.976 389.600 C 9.873 389.600,7.543 391.850,4.800 394.600 " stroke="none" fill="#94d8fc" fill-rule="evenodd"></path><path id="path3" d="M394.580 5.220 L 389.400 10.412 389.200 199.706 L 389.000 389.000 199.690 389.200 L 10.380 389.400 5.119 394.700 L -0.142 400.000 199.929 400.000 C 309.968 400.000,400.000 399.865,400.000 399.700 C 400.000 399.535,310.415 399.446,200.922 399.502 C 91.428 399.557,1.698 399.458,1.521 399.281 C 1.344 399.104,3.331 396.853,5.936 394.279 L 10.674 389.600 199.657 389.600 C 346.110 389.600,388.748 389.492,389.120 389.120 C 389.492 388.748,389.600 346.103,389.600 199.626 L 389.600 10.611 394.805 5.444 C 397.668 2.603,399.955 0.221,399.886 0.153 C 399.817 0.084,397.430 2.364,394.580 5.220 M166.603 145.595 C 166.468 145.813,166.606 145.896,166.908 145.780 C 167.238 145.653,167.652 145.995,167.944 146.636 C 168.211 147.223,168.528 147.606,168.647 147.486 C 168.919 147.214,167.625 145.200,167.178 145.200 C 166.996 145.200,166.737 145.378,166.603 145.595 M164.614 149.035 C 164.241 149.604,164.005 150.138,164.089 150.222 C 164.173 150.307,164.558 149.841,164.944 149.188 C 165.806 147.728,165.548 147.609,164.614 149.035 M171.230 151.800 C 171.724 152.680,172.300 153.580,172.510 153.800 C 173.109 154.428,171.739 151.894,170.996 151.000 C 170.630 150.560,170.735 150.920,171.230 151.800 M161.508 154.500 C 160.633 155.849,159.848 157.456,160.287 157.000 C 160.848 156.417,162.498 153.600,162.279 153.600 C 162.176 153.600,161.829 154.005,161.508 154.500 M173.630 155.800 C 174.124 156.680,174.700 157.580,174.910 157.800 C 175.509 158.428,174.139 155.894,173.396 155.000 C 173.030 154.560,173.135 154.920,173.630 155.800 M82.500 155.894 C 83.545 155.976,85.255 155.976,86.300 155.894 C 87.345 155.812,86.490 155.744,84.400 155.744 C 82.310 155.744,81.455 155.812,82.500 155.894 M75.800 156.400 L 75.000 156.744 75.800 156.725 C 76.240 156.714,77.140 156.568,77.800 156.400 L 79.000 156.095 77.800 156.075 C 77.140 156.065,76.240 156.211,75.800 156.400 M89.633 156.144 C 89.725 156.223,90.790 156.389,92.000 156.512 C 93.369 156.651,93.898 156.608,93.400 156.396 C 92.633 156.070,89.289 155.847,89.633 156.144 M105.074 156.259 C 104.923 156.410,104.800 176.933,104.800 201.867 L 104.800 247.200 113.700 247.108 L 122.600 247.016 113.900 246.900 L 105.200 246.784 105.200 201.592 L 105.200 156.400 113.567 156.400 C 118.882 156.400,122.007 156.550,122.137 156.810 C 122.249 157.036,122.294 156.990,122.237 156.710 C 122.125 156.155,105.612 155.721,105.074 156.259 M290.711 156.693 C 291.651 156.778,293.091 156.777,293.911 156.691 C 294.730 156.605,293.960 156.536,292.200 156.537 C 290.440 156.539,289.770 156.609,290.711 156.693 M72.800 157.218 C 72.362 157.515,72.524 157.552,73.400 157.356 C 74.871 157.027,75.190 156.798,74.167 156.806 C 73.745 156.809,73.130 156.995,72.800 157.218 M95.600 157.200 C 96.968 157.638,98.019 157.638,97.000 157.200 C 96.560 157.011,95.840 156.862,95.400 156.868 C 94.757 156.877,94.796 156.943,95.600 157.200 M297.400 157.552 C 299.272 158.412,300.137 159.300,300.967 161.212 C 301.298 161.975,301.576 162.312,301.584 161.959 C 301.623 160.359,298.056 156.787,296.441 156.809 C 296.088 156.814,296.520 157.148,297.400 157.552 M98.900 158.065 C 99.505 158.286,100.014 158.767,100.032 159.133 C 100.056 159.642,100.116 159.666,100.287 159.235 C 100.540 158.595,99.365 157.584,98.424 157.632 C 98.081 157.649,98.295 157.844,98.900 158.065 M67.938 159.786 C 66.915 160.537,65.941 161.388,65.774 161.676 C 65.607 161.964,65.905 161.821,66.435 161.357 C 66.966 160.893,68.117 160.038,68.993 159.457 C 69.869 158.876,70.409 158.404,70.193 158.410 C 69.977 158.415,68.962 159.035,67.938 159.786 M283.996 159.700 C 283.560 160.415,283.202 161.165,283.201 161.367 C 283.200 161.823,283.256 161.748,284.314 159.900 C 285.366 158.063,285.097 157.894,283.996 159.700 M158.308 160.100 C 157.433 161.449,156.648 163.056,157.087 162.600 C 157.648 162.017,159.298 159.200,159.079 159.200 C 158.976 159.200,158.629 159.605,158.308 160.100 M176.830 161.000 C 177.324 161.880,177.900 162.780,178.110 163.000 C 178.709 163.628,177.339 161.094,176.596 160.200 C 176.230 159.760,176.335 160.120,176.830 161.000 M282.656 163.700 C 282.526 164.635,282.562 166.030,282.735 166.800 C 282.983 167.902,283.052 167.540,283.058 165.100 C 283.068 161.566,282.989 161.292,282.656 163.700 M155.959 164.100 C 155.701 164.595,155.035 165.810,154.479 166.800 C 153.923 167.790,153.658 168.420,153.890 168.200 C 154.472 167.648,156.929 163.200,156.652 163.200 C 156.529 163.200,156.217 163.605,155.959 164.100 M301.714 165.000 C 301.717 166.100,301.795 166.503,301.887 165.895 C 301.979 165.286,301.977 164.386,301.882 163.895 C 301.787 163.403,301.711 163.900,301.714 165.000 M180.030 166.200 C 180.524 167.080,181.100 167.980,181.310 168.200 C 181.909 168.828,180.539 166.294,179.796 165.400 C 179.430 164.960,179.535 165.320,180.030 166.200 M283.212 168.607 C 283.151 170.660,286.906 173.262,290.200 173.448 L 292.200 173.560 290.200 173.223 C 286.810 172.651,285.054 171.516,283.666 169.000 C 283.423 168.560,283.219 168.383,283.212 168.607 M61.856 169.684 C 61.721 170.188,61.628 171.050,61.649 171.600 C 61.672 172.189,61.831 171.871,62.036 170.825 C 62.403 168.952,62.273 168.127,61.856 169.684 M152.600 170.000 C 152.259 170.660,152.069 171.200,152.179 171.200 C 152.289 171.200,152.659 170.660,153.000 170.000 C 153.341 169.340,153.531 168.800,153.421 168.800 C 153.311 168.800,152.941 169.340,152.600 170.000 M182.215 169.900 C 183.556 171.985,184.000 172.577,184.000 172.280 C 184.000 171.896,181.955 168.800,181.701 168.800 C 181.595 168.800,181.826 169.295,182.215 169.900 M96.295 169.959 C 96.077 170.793,95.879 170.873,94.525 170.672 L 93.000 170.445 94.322 170.887 C 95.760 171.367,97.077 170.632,96.717 169.550 C 96.614 169.241,96.438 169.413,96.295 169.959 M82.559 170.172 C 81.208 170.760,79.857 172.419,79.443 174.000 C 79.298 174.550,79.559 174.246,80.023 173.324 C 80.944 171.493,81.975 170.657,84.048 170.061 C 84.827 169.837,85.061 169.664,84.600 169.652 C 84.160 169.641,83.241 169.875,82.559 170.172 M88.433 169.749 C 88.525 169.831,89.500 170.001,90.600 170.128 C 91.949 170.284,92.274 170.249,91.600 170.020 C 90.601 169.680,88.118 169.468,88.433 169.749 M298.411 171.820 C 297.647 172.359,297.197 172.799,297.411 172.798 C 297.625 172.797,298.340 172.353,299.000 171.812 C 300.541 170.549,300.205 170.553,298.411 171.820 M151.000 172.800 C 150.659 173.460,150.469 174.000,150.579 174.000 C 150.689 174.000,151.059 173.460,151.400 172.800 C 151.741 172.140,151.931 171.600,151.821 171.600 C 151.711 171.600,151.341 172.140,151.000 172.800 M294.000 173.200 L 292.200 173.480 293.800 173.512 C 294.680 173.529,295.760 173.389,296.200 173.200 C 297.127 172.802,296.561 172.802,294.000 173.200 M61.189 177.800 L 61.000 181.800 56.086 184.319 L 51.172 186.839 51.286 190.919 L 51.400 195.000 55.901 195.021 L 60.401 195.041 55.986 194.907 L 51.571 194.774 51.686 190.887 L 51.800 187.000 56.514 184.600 C 61.845 181.885,61.693 182.111,61.507 177.200 L 61.379 173.800 61.189 177.800 M149.400 175.600 C 149.059 176.260,148.869 176.800,148.979 176.800 C 149.089 176.800,149.459 176.260,149.800 175.600 C 150.141 174.940,150.331 174.400,150.221 174.400 C 150.111 174.400,149.741 174.940,149.400 175.600 M78.976 178.600 L 79.000 181.800 86.500 181.909 L 94.000 182.018 94.000 188.400 L 94.000 194.782 86.700 194.901 L 79.400 195.019 86.910 195.110 L 94.419 195.200 94.310 188.500 L 94.200 181.800 86.716 181.691 L 79.232 181.582 79.092 178.491 L 78.952 175.400 78.976 178.600 M186.430 176.600 C 186.924 177.480,187.500 178.380,187.710 178.600 C 188.309 179.228,186.939 176.694,186.196 175.800 C 185.830 175.360,185.935 175.720,186.430 176.600 M147.800 178.400 C 147.459 179.060,147.269 179.600,147.379 179.600 C 147.489 179.600,147.859 179.060,148.200 178.400 C 148.541 177.740,148.731 177.200,148.621 177.200 C 148.511 177.200,148.141 177.740,147.800 178.400 M188.831 180.700 C 189.848 182.400,190.400 183.094,190.400 182.671 C 190.400 182.306,188.355 179.200,188.114 179.200 C 188.016 179.200,188.338 179.875,188.831 180.700 M146.200 181.200 C 145.859 181.860,145.669 182.400,145.779 182.400 C 145.889 182.400,146.259 181.860,146.600 181.200 C 146.941 180.540,147.131 180.000,147.021 180.000 C 146.911 180.000,146.541 180.540,146.200 181.200 M167.592 182.500 C 167.178 183.353,167.187 183.361,167.765 182.641 C 168.298 181.978,168.465 181.952,169.087 182.441 C 169.736 182.950,169.751 182.937,169.251 182.300 C 168.521 181.369,168.117 181.418,167.592 182.500 M206.536 182.222 C 206.405 182.564,206.490 183.239,206.726 183.722 C 207.099 184.485,207.126 184.429,206.928 183.300 L 206.700 182.000 215.270 182.000 C 221.402 182.000,223.977 182.137,224.320 182.480 C 224.641 182.801,224.800 182.815,224.800 182.523 C 224.800 181.354,206.982 181.060,206.536 182.222 M255.787 182.214 C 255.021 182.827,255.023 182.833,255.874 182.422 C 256.400 182.168,260.035 182.000,265.019 182.000 L 273.291 182.000 273.113 183.213 C 273.005 183.947,273.079 184.281,273.301 184.059 C 273.503 183.857,273.607 183.267,273.534 182.746 L 273.400 181.800 264.987 181.692 C 257.821 181.601,256.457 181.678,255.787 182.214 M283.873 182.100 C 283.241 182.565,283.200 184.883,283.296 214.800 L 283.400 247.000 292.200 247.000 L 301.000 247.000 301.102 214.844 C 301.177 191.420,301.082 182.540,300.753 182.144 C 300.129 181.392,284.890 181.352,283.873 182.100 M316.080 182.080 C 315.277 182.883,315.417 195.044,316.233 195.357 C 316.581 195.491,322.875 195.600,330.220 195.600 C 342.512 195.600,343.555 195.653,343.319 196.266 C 343.148 196.713,343.217 196.836,343.532 196.642 C 345.578 195.377,344.129 195.211,330.100 195.105 L 316.200 195.000 316.200 188.600 L 316.200 182.200 340.000 182.200 L 363.800 182.200 363.911 187.829 L 364.021 193.457 362.688 195.229 C 361.955 196.203,360.849 197.675,360.230 198.500 C 359.611 199.325,359.212 200.000,359.342 200.000 C 359.473 200.000,360.664 198.522,361.990 196.716 L 364.400 193.432 364.400 187.996 C 364.400 184.301,364.246 182.406,363.920 182.080 C 363.227 181.387,316.773 181.387,316.080 182.080 M300.702 214.500 L 300.805 246.800 292.202 246.800 L 283.600 246.800 283.600 214.633 C 283.600 189.277,283.706 182.423,284.100 182.261 C 284.375 182.147,288.200 182.087,292.600 182.127 L 300.600 182.200 300.702 214.500 M144.600 184.000 C 144.259 184.660,144.069 185.200,144.179 185.200 C 144.289 185.200,144.659 184.660,145.000 184.000 C 145.341 183.340,145.531 182.800,145.421 182.800 C 145.311 182.800,144.941 183.340,144.600 184.000 M254.600 184.000 C 254.450 184.473,254.417 184.950,254.527 185.060 C 254.637 185.170,254.850 184.873,255.000 184.400 C 255.150 183.927,255.183 183.450,255.073 183.340 C 254.963 183.230,254.750 183.527,254.600 184.000 M166.200 184.800 C 165.859 185.460,165.669 186.000,165.779 186.000 C 165.889 186.000,166.259 185.460,166.600 184.800 C 166.941 184.140,167.131 183.600,167.021 183.600 C 166.911 183.600,166.541 184.140,166.200 184.800 M170.924 185.400 C 171.262 186.060,171.838 186.960,172.204 187.400 C 172.570 187.840,172.465 187.480,171.970 186.600 C 170.880 184.658,170.064 183.722,170.924 185.400 M143.014 186.635 C 142.641 187.204,142.427 187.761,142.539 187.872 C 142.650 187.983,143.029 187.518,143.381 186.837 C 144.159 185.333,143.944 185.215,143.014 186.635 M192.830 187.000 C 193.324 187.880,193.900 188.780,194.110 189.000 C 194.709 189.628,193.339 187.094,192.596 186.200 C 192.230 185.760,192.335 186.120,192.830 187.000 M164.600 187.600 C 164.259 188.260,164.069 188.800,164.179 188.800 C 164.289 188.800,164.659 188.260,165.000 187.600 C 165.341 186.940,165.531 186.400,165.421 186.400 C 165.311 186.400,164.941 186.940,164.600 187.600 M141.400 189.600 C 141.059 190.260,140.869 190.800,140.979 190.800 C 141.089 190.800,141.459 190.260,141.800 189.600 C 142.141 188.940,142.331 188.400,142.221 188.400 C 142.111 188.400,141.741 188.940,141.400 189.600 M208.845 189.200 C 208.853 189.530,209.206 190.520,209.629 191.400 C 210.052 192.280,210.286 192.562,210.149 192.026 C 209.773 190.561,208.829 188.514,208.845 189.200 M163.152 190.100 C 162.890 190.595,162.415 191.450,162.096 192.000 C 161.539 192.959,161.543 192.967,162.188 192.200 C 162.986 191.252,164.105 189.200,163.824 189.200 C 163.716 189.200,163.414 189.605,163.152 190.100 M174.394 191.100 C 174.859 191.925,175.612 193.050,176.067 193.600 L 176.895 194.600 176.195 193.435 C 175.811 192.794,175.141 191.669,174.708 190.935 C 173.625 189.098,173.348 189.244,174.394 191.100 M195.230 191.000 C 195.724 191.880,196.300 192.780,196.510 193.000 C 197.109 193.628,195.739 191.094,194.996 190.200 C 194.630 189.760,194.735 190.120,195.230 191.000 M139.814 192.235 C 139.441 192.804,139.205 193.338,139.289 193.422 C 139.373 193.507,139.758 193.041,140.144 192.388 C 141.006 190.928,140.748 190.809,139.814 192.235 M160.653 194.500 L 159.933 195.800 160.758 194.800 C 161.489 193.913,161.814 193.200,161.486 193.200 C 161.424 193.200,161.049 193.785,160.653 194.500 M138.214 195.035 C 137.841 195.604,137.627 196.161,137.739 196.272 C 137.850 196.383,138.229 195.918,138.581 195.237 C 139.359 193.733,139.144 193.615,138.214 195.035 M177.594 196.300 C 178.059 197.125,178.812 198.250,179.267 198.800 L 180.095 199.800 179.395 198.635 C 179.011 197.994,178.341 196.869,177.908 196.135 C 176.825 194.298,176.548 194.444,177.594 196.300 M197.960 195.400 C 198.634 196.705,199.188 197.428,199.185 197.000 C 199.183 196.780,198.814 196.150,198.364 195.600 C 197.821 194.936,197.685 194.869,197.960 195.400 M61.200 221.100 L 61.400 247.000 70.200 247.000 L 79.000 247.000 79.004 221.000 L 79.009 195.000 78.902 220.900 L 78.794 246.800 70.197 246.800 L 61.600 246.800 61.600 221.000 C 61.600 206.810,61.465 195.200,61.300 195.200 C 61.135 195.200,61.090 206.855,61.200 221.100 M159.053 197.300 L 158.333 198.600 159.158 197.600 C 159.889 196.713,160.214 196.000,159.886 196.000 C 159.824 196.000,159.449 196.585,159.053 197.300 M136.224 198.669 C 135.649 199.697,135.229 200.668,135.290 200.827 C 135.350 200.986,135.898 200.145,136.507 198.958 C 137.865 196.310,137.660 196.100,136.224 198.669 M212.045 197.600 C 212.053 197.930,212.406 198.920,212.829 199.800 C 213.252 200.680,213.486 200.962,213.349 200.426 C 212.973 198.961,212.029 196.914,212.045 197.600 M342.329 197.900 C 341.378 199.018,339.928 201.200,340.135 201.200 C 340.240 201.200,340.972 200.300,341.762 199.200 C 343.185 197.219,343.477 196.550,342.329 197.900 M200.282 199.789 C 200.873 200.993,201.423 201.911,201.505 201.829 C 201.684 201.649,199.667 197.600,199.398 197.600 C 199.294 197.600,199.692 198.585,200.282 199.789 M157.400 200.000 C 157.059 200.660,156.869 201.200,156.979 201.200 C 157.089 201.200,157.459 200.660,157.800 200.000 C 158.141 199.340,158.331 198.800,158.221 198.800 C 158.111 198.800,157.741 199.340,157.400 200.000 M357.775 201.868 C 357.159 202.676,356.859 203.211,357.109 203.056 C 357.621 202.740,359.353 200.400,359.075 200.400 C 358.976 200.400,358.391 201.061,357.775 201.868 M181.324 202.200 C 181.662 202.860,182.238 203.760,182.604 204.200 C 182.970 204.640,182.865 204.280,182.370 203.400 C 181.280 201.458,180.464 200.522,181.324 202.200 M155.800 202.800 C 155.459 203.460,155.269 204.000,155.379 204.000 C 155.489 204.000,155.859 203.460,156.200 202.800 C 156.541 202.140,156.731 201.600,156.621 201.600 C 156.511 201.600,156.141 202.140,155.800 202.800 M338.496 203.005 C 337.332 204.803,337.600 204.800,338.973 203.000 C 339.560 202.230,339.897 201.602,339.720 201.605 C 339.544 201.608,338.993 202.238,338.496 203.005 M355.008 205.642 C 354.201 206.765,353.732 207.565,353.966 207.421 C 354.452 207.120,356.932 203.600,356.657 203.600 C 356.557 203.600,355.815 204.519,355.008 205.642 M154.181 205.637 C 153.829 206.318,153.612 206.945,153.699 207.032 C 153.786 207.119,154.156 206.562,154.522 205.795 C 155.344 204.070,155.059 203.938,154.181 205.637 M202.644 205.800 C 202.973 207.271,203.202 207.590,203.194 206.567 C 203.191 206.145,203.005 205.530,202.782 205.200 C 202.485 204.762,202.448 204.924,202.644 205.800 M335.543 207.100 C 333.327 210.129,329.551 215.269,329.077 215.900 C 328.871 216.175,328.799 216.400,328.917 216.400 C 329.035 216.400,330.616 214.375,332.430 211.900 C 334.244 209.425,336.170 206.815,336.711 206.100 C 337.252 205.385,337.589 204.800,337.460 204.800 C 337.331 204.800,336.468 205.835,335.543 207.100 M215.245 206.000 C 215.253 206.330,215.606 207.320,216.029 208.200 C 216.452 209.080,216.686 209.362,216.549 208.826 C 216.173 207.361,215.229 205.314,215.245 206.000 M133.000 207.600 C 132.848 208.291,132.807 208.941,132.909 209.042 C 133.011 209.144,133.209 208.653,133.350 207.950 C 133.683 206.283,133.360 205.960,133.000 207.600 M203.488 210.200 C 203.611 211.520,203.776 212.675,203.856 212.767 C 204.135 213.089,203.916 209.788,203.593 208.800 C 203.389 208.179,203.349 208.709,203.488 210.200 M352.915 208.500 C 351.181 210.767,350.266 212.120,350.609 211.913 C 351.081 211.627,353.737 208.000,353.474 208.000 C 353.377 208.000,353.126 208.225,352.915 208.500 M185.088 211.000 C 185.211 212.320,185.376 213.475,185.456 213.567 C 185.735 213.889,185.516 210.588,185.193 209.600 C 184.989 208.979,184.949 209.509,185.088 211.000 M132.266 212.700 C 132.135 214.185,132.165 216.480,132.333 217.800 C 132.584 219.778,132.640 219.303,132.648 215.100 C 132.659 209.283,132.599 208.910,132.266 212.700 M152.540 213.200 C 152.540 215.070,152.609 215.835,152.693 214.900 C 152.777 213.965,152.777 212.435,152.693 211.500 C 152.609 210.565,152.540 211.330,152.540 213.200 M348.975 213.868 C 348.359 214.676,348.059 215.211,348.309 215.056 C 348.821 214.740,350.553 212.400,350.275 212.400 C 350.176 212.400,349.591 213.061,348.975 213.868 M185.040 215.640 C 184.893 216.557,184.852 217.385,184.947 217.480 C 185.042 217.576,185.246 216.910,185.400 216.000 C 185.554 215.090,185.596 214.262,185.493 214.160 C 185.390 214.057,185.187 214.723,185.040 215.640 M218.445 214.400 C 218.453 214.730,218.806 215.720,219.229 216.600 C 219.652 217.480,219.886 217.762,219.749 217.226 C 219.373 215.761,218.429 213.714,218.445 214.400 M346.208 217.642 C 345.401 218.765,344.932 219.565,345.166 219.421 C 345.652 219.120,348.132 215.600,347.857 215.600 C 347.757 215.600,347.015 216.519,346.208 217.642 M203.664 217.850 C 203.629 218.538,203.511 219.707,203.401 220.450 L 203.203 221.800 203.624 220.458 C 203.855 219.720,203.973 218.550,203.886 217.858 L 203.728 216.600 203.664 217.850 M327.944 217.500 C 326.675 219.032,326.219 219.742,326.681 219.465 C 327.193 219.158,328.969 216.800,328.689 216.800 C 328.598 216.800,328.263 217.115,327.944 217.500 M237.044 219.400 C 237.373 220.871,237.602 221.190,237.594 220.167 C 237.591 219.745,237.405 219.130,237.182 218.800 C 236.885 218.362,236.848 218.524,237.044 219.400 M242.629 219.829 C 242.481 220.415,242.438 220.972,242.532 221.066 C 242.627 221.160,242.824 220.758,242.971 220.171 C 243.119 219.585,243.162 219.028,243.068 218.934 C 242.973 218.840,242.776 219.242,242.629 219.829 M325.715 220.500 C 323.981 222.767,323.066 224.120,323.409 223.913 C 323.881 223.627,326.537 220.000,326.274 220.000 C 326.177 220.000,325.926 220.225,325.715 220.500 M344.115 220.500 C 342.381 222.767,341.466 224.120,341.809 223.913 C 342.281 223.627,344.937 220.000,344.674 220.000 C 344.577 220.000,344.326 220.225,344.115 220.500 M132.868 221.600 C 132.862 222.150,133.011 222.960,133.200 223.400 L 133.544 224.200 133.532 223.400 C 133.526 222.960,133.376 222.150,133.200 221.600 L 132.880 220.600 132.868 221.600 M155.043 222.344 C 155.873 223.818,158.404 226.189,160.355 227.323 C 162.356 228.484,161.788 227.838,159.435 226.276 C 158.244 225.485,156.769 224.155,156.157 223.319 C 154.558 221.137,154.174 220.801,155.043 222.344 M237.668 221.600 C 237.688 222.639,238.318 224.346,238.332 223.400 C 238.338 222.960,238.189 222.240,238.000 221.800 C 237.789 221.310,237.661 221.232,237.668 221.600 M241.800 222.800 C 241.648 223.491,241.607 224.141,241.709 224.242 C 241.811 224.344,242.009 223.853,242.150 223.150 C 242.291 222.447,242.331 221.798,242.241 221.708 C 242.150 221.617,241.952 222.109,241.800 222.800 M202.846 222.867 C 202.821 223.234,202.696 223.864,202.570 224.267 C 202.352 224.962,202.363 224.963,202.797 224.287 C 203.048 223.896,203.173 223.266,203.073 222.887 C 202.911 222.268,202.888 222.266,202.846 222.867 M221.645 222.800 C 221.653 223.130,222.006 224.120,222.429 225.000 C 222.852 225.880,223.086 226.162,222.949 225.626 C 222.573 224.161,221.629 222.114,221.645 222.800 M179.800 225.086 C 178.480 226.324,177.940 226.962,178.600 226.503 C 179.751 225.704,182.748 222.781,182.378 222.818 C 182.280 222.828,181.120 223.849,179.800 225.086 M238.487 225.000 C 238.491 225.440,238.632 226.340,238.800 227.000 C 239.074 228.078,239.106 228.098,239.113 227.200 C 239.117 226.650,238.976 225.750,238.800 225.200 C 238.549 224.416,238.481 224.373,238.487 225.000 M322.329 225.100 C 321.378 226.218,319.928 228.400,320.135 228.400 C 320.240 228.400,320.972 227.500,321.762 226.400 C 323.185 224.419,323.477 223.750,322.329 225.100 M340.175 225.868 C 339.559 226.676,339.259 227.211,339.509 227.056 C 340.021 226.740,341.753 224.400,341.475 224.400 C 341.376 224.400,340.791 225.061,340.175 225.868 M241.056 226.084 C 240.921 226.588,240.827 227.360,240.846 227.800 C 240.865 228.240,241.045 227.898,241.246 227.040 C 241.636 225.378,241.470 224.540,241.056 226.084 M200.413 229.656 C 199.904 230.784,198.717 232.853,197.777 234.256 C 196.837 235.658,196.230 236.705,196.428 236.582 C 197.430 235.963,201.918 228.185,201.509 227.776 C 201.416 227.683,200.923 228.529,200.413 229.656 M337.408 229.642 C 336.601 230.765,336.132 231.565,336.366 231.421 C 336.852 231.120,339.332 227.600,339.057 227.600 C 338.957 227.600,338.215 228.519,337.408 229.642 M165.276 229.260 C 165.784 229.403,167.460 229.520,169.000 229.520 C 170.540 229.520,172.216 229.403,172.724 229.260 C 173.232 229.117,171.556 229.000,169.000 229.000 C 166.444 229.000,164.768 229.117,165.276 229.260 M239.225 229.667 C 239.191 231.121,239.574 232.000,240.243 232.000 C 240.606 232.000,240.798 231.547,240.794 230.700 C 240.789 229.739,240.690 229.554,240.414 229.990 C 240.110 230.472,239.969 230.399,239.646 229.590 L 239.251 228.600 239.225 229.667 M319.144 229.500 C 317.993 230.889,317.506 231.600,317.704 231.600 C 317.814 231.600,318.386 230.970,318.973 230.200 C 320.063 228.771,320.195 228.232,319.144 229.500 M224.845 231.200 C 224.853 231.530,225.206 232.520,225.629 233.400 C 226.052 234.280,226.286 234.562,226.149 234.026 C 225.773 232.561,224.829 230.514,224.845 231.200 M136.800 232.183 C 136.800 232.886,141.697 239.200,142.243 239.200 C 142.415 239.200,142.000 238.615,141.319 237.900 C 140.638 237.185,139.343 235.535,138.441 234.234 C 137.538 232.932,136.800 232.009,136.800 232.183 M315.513 234.300 L 313.800 236.600 313.800 241.800 L 313.800 247.000 339.600 247.000 L 365.400 247.000 365.400 240.400 L 365.400 233.800 350.400 233.792 L 335.400 233.785 350.300 233.897 L 365.200 234.010 365.200 240.405 L 365.200 246.800 339.600 246.800 L 314.000 246.800 314.006 242.100 C 314.012 237.106,314.086 236.843,316.325 233.800 C 317.054 232.810,317.554 232.000,317.437 232.000 C 317.321 232.000,316.455 233.035,315.513 234.300 M252.677 237.077 C 252.300 238.093,252.058 238.991,252.138 239.072 C 252.219 239.152,252.600 238.393,252.985 237.385 C 253.370 236.376,253.612 235.479,253.523 235.390 C 253.435 235.301,253.054 236.060,252.677 237.077 M192.600 240.300 C 190.840 241.987,189.940 242.984,190.600 242.515 C 191.785 241.673,196.347 237.185,195.986 237.216 C 195.884 237.225,194.360 238.613,192.600 240.300 M228.045 239.600 C 228.053 239.930,228.406 240.920,228.829 241.800 C 229.252 242.680,229.486 242.962,229.349 242.426 C 228.973 240.961,228.029 238.914,228.045 239.600 M144.144 241.109 C 144.460 241.621,146.800 243.353,146.800 243.075 C 146.800 242.976,146.139 242.391,145.332 241.775 C 144.524 241.159,143.989 240.859,144.144 241.109 M149.000 244.628 C 149.974 245.402,153.630 247.303,153.805 247.127 C 153.874 247.057,152.641 246.323,151.065 245.496 C 149.489 244.669,148.560 244.278,149.000 244.628 M230.418 245.800 C 230.398 247.137,230.990 247.216,240.195 247.108 C 247.212 247.025,249.358 246.882,249.437 246.490 C 249.494 246.210,249.449 246.165,249.337 246.390 C 248.936 247.198,231.311 246.922,230.832 246.100 C 230.608 245.715,230.422 245.580,230.418 245.800 M159.400 249.181 C 160.168 249.529,162.310 249.756,161.967 249.453 C 161.875 249.372,161.080 249.196,160.200 249.062 C 159.085 248.893,158.842 248.929,159.400 249.181 M175.000 249.200 C 173.911 249.477,173.893 249.507,174.800 249.525 C 175.350 249.535,176.160 249.389,176.600 249.200 C 177.586 248.776,176.666 248.776,175.000 249.200 M165.499 250.156 C 166.956 250.363,169.206 250.363,170.899 250.156 C 173.617 249.822,173.460 249.800,168.400 249.800 C 163.642 249.800,163.297 249.842,165.499 250.156 " stroke="none" fill="#b1e3fc" fill-rule="evenodd"></path><path id="path4" d="M393.694 5.305 L 388.400 10.611 388.400 199.505 L 388.400 388.400 199.494 388.400 L 10.589 388.400 5.194 393.887 L -0.200 399.375 5.260 394.087 L 10.719 388.800 199.760 388.800 L 388.800 388.800 388.800 199.733 L 388.800 10.666 394.081 5.333 C 396.985 2.400,399.278 0.000,399.175 0.000 C 399.073 0.000,396.606 2.387,393.694 5.305 M166.268 144.700 C 166.169 144.865,165.708 145.675,165.244 146.500 C 164.780 147.325,164.040 148.630,163.600 149.400 C 163.160 150.170,162.440 151.430,162.000 152.200 C 161.560 152.970,160.840 154.230,160.400 155.000 C 159.960 155.770,159.240 157.030,158.800 157.800 C 158.360 158.570,157.640 159.830,157.200 160.600 C 156.760 161.370,156.040 162.630,155.600 163.400 C 155.160 164.170,154.440 165.430,154.000 166.200 C 153.560 166.970,152.840 168.230,152.400 169.000 C 151.960 169.770,151.240 171.030,150.800 171.800 C 150.360 172.570,149.640 173.830,149.200 174.600 C 148.760 175.370,148.040 176.630,147.600 177.400 C 147.160 178.170,146.440 179.430,146.000 180.200 C 145.560 180.970,144.819 182.275,144.353 183.100 C 143.887 183.925,143.206 185.050,142.839 185.600 C 142.472 186.150,141.914 187.140,141.600 187.800 C 141.286 188.460,140.705 189.481,140.310 190.068 C 139.914 190.656,139.080 192.096,138.457 193.268 C 137.834 194.441,136.953 196.050,136.499 196.845 C 135.355 198.851,134.969 199.615,134.400 201.000 C 134.129 201.660,133.748 202.513,133.553 202.895 C 133.359 203.277,133.200 203.941,133.200 204.371 C 133.200 204.801,133.020 205.264,132.800 205.400 C 132.580 205.536,132.411 206.312,132.424 207.124 C 132.446 208.440,132.527 208.318,133.170 206.000 C 134.473 201.304,135.460 199.420,149.050 175.693 C 156.451 162.772,162.961 151.390,163.517 150.400 C 164.072 149.410,164.949 147.929,165.464 147.108 C 165.979 146.287,166.400 145.432,166.400 145.208 C 166.400 144.139,167.648 145.011,168.821 146.900 C 172.009 152.036,178.380 162.407,185.589 174.200 C 188.951 179.700,192.375 185.280,193.198 186.600 C 199.006 195.914,200.661 198.787,201.842 201.600 C 202.351 202.810,202.774 203.483,202.783 203.095 C 202.792 202.707,202.643 202.077,202.450 201.695 C 202.258 201.313,201.691 200.190,201.190 199.200 C 200.690 198.210,200.083 196.996,199.840 196.503 C 199.598 196.010,199.265 195.605,199.100 195.603 C 198.935 195.601,198.800 195.407,198.800 195.172 C 198.800 194.937,198.260 193.959,197.600 193.000 C 196.940 192.041,196.400 191.143,196.400 191.006 C 196.400 190.869,195.680 189.696,194.800 188.400 C 193.920 187.104,193.200 185.934,193.200 185.800 C 193.200 185.666,192.480 184.496,191.600 183.200 C 190.720 181.904,190.000 180.731,190.000 180.594 C 190.000 180.457,189.460 179.559,188.800 178.600 C 188.140 177.641,187.600 176.743,187.600 176.606 C 187.600 176.469,186.880 175.296,186.000 174.000 C 185.120 172.704,184.400 171.454,184.400 171.222 C 184.400 170.990,184.220 170.800,184.000 170.800 C 183.780 170.800,183.600 170.607,183.600 170.372 C 183.600 170.137,183.060 169.159,182.400 168.200 C 181.740 167.241,181.200 166.343,181.200 166.206 C 181.200 166.069,180.480 164.896,179.600 163.600 C 178.720 162.304,178.000 161.054,178.000 160.822 C 178.000 160.590,177.820 160.400,177.600 160.400 C 177.380 160.400,177.200 160.207,177.200 159.972 C 177.200 159.737,176.660 158.759,176.000 157.800 C 175.340 156.841,174.800 155.943,174.800 155.806 C 174.800 155.669,174.080 154.496,173.200 153.200 C 172.320 151.904,171.600 150.734,171.600 150.600 C 171.600 150.466,170.911 149.331,170.069 148.078 C 169.227 146.825,168.422 145.485,168.281 145.100 C 168.027 144.405,166.612 144.124,166.268 144.700 M78.800 155.188 C 78.470 155.408,77.446 155.591,76.524 155.594 C 75.602 155.597,74.743 155.769,74.615 155.976 C 74.380 156.356,75.377 156.274,79.573 155.566 C 82.374 155.094,87.034 155.098,89.480 155.574 C 92.322 156.127,95.317 156.355,94.935 155.990 C 94.134 155.225,79.813 154.514,78.800 155.188 M104.198 156.500 C 104.078 156.995,104.030 177.650,104.090 202.400 L 104.200 247.400 113.350 247.508 C 119.763 247.583,122.664 247.479,123.050 247.159 C 123.810 246.528,123.879 156.839,123.120 156.080 C 122.775 155.735,120.082 155.600,113.528 155.600 L 104.415 155.600 104.198 156.500 M287.600 156.199 C 285.762 156.860,282.800 159.455,282.800 160.404 C 282.800 160.816,282.620 161.264,282.400 161.400 C 282.180 161.536,282.000 163.156,282.000 165.000 C 282.000 166.844,282.180 168.464,282.400 168.600 C 282.620 168.736,282.800 169.160,282.800 169.542 C 282.800 171.178,286.880 174.028,289.095 173.940 C 290.416 173.887,290.453 173.861,289.400 173.726 C 285.026 173.164,282.400 169.890,282.400 165.000 C 282.400 157.998,288.284 154.398,296.294 156.500 C 304.716 158.709,304.059 172.222,295.462 173.628 L 293.800 173.900 295.262 173.950 C 298.227 174.051,300.981 171.721,302.294 168.000 C 302.889 166.313,302.958 162.545,302.400 162.200 C 302.180 162.064,302.000 161.528,302.000 161.008 C 302.000 159.738,298.662 156.400,297.392 156.400 C 296.872 156.400,296.336 156.220,296.200 156.000 C 295.852 155.438,289.295 155.589,287.600 156.199 M122.702 201.708 L 122.803 247.215 113.702 247.108 L 104.600 247.000 104.490 202.400 C 104.430 177.870,104.479 157.392,104.600 156.892 L 104.819 155.985 113.710 156.092 L 122.600 156.200 122.702 201.708 M70.000 157.639 C 66.501 159.498,62.000 164.854,62.000 167.158 C 62.000 167.533,61.838 168.011,61.641 168.220 C 61.130 168.761,60.785 171.488,60.543 176.897 L 60.333 181.594 58.867 182.240 C 50.457 185.941,50.800 185.566,50.800 191.062 C 50.800 195.129,50.873 195.597,51.500 195.568 C 51.918 195.550,51.999 195.456,51.700 195.335 C 51.343 195.191,51.200 193.893,51.200 190.802 L 51.200 186.471 55.900 184.135 L 60.600 181.799 60.686 179.000 C 61.074 166.347,64.572 159.798,72.400 157.066 C 73.670 156.623,73.905 156.443,73.200 156.454 C 72.650 156.463,71.210 156.996,70.000 157.639 M96.400 156.777 C 96.950 156.932,97.981 157.202,98.691 157.378 C 101.007 157.950,101.021 158.270,98.992 164.074 C 97.968 167.003,97.037 169.793,96.923 170.273 C 96.629 171.518,95.940 171.647,93.314 170.946 C 84.050 168.474,79.026 171.290,79.304 178.800 L 79.400 181.400 87.000 181.600 L 94.600 181.800 94.710 188.146 C 94.852 196.274,95.590 195.600,86.551 195.600 L 79.200 195.600 79.200 221.400 L 79.200 247.200 70.000 247.200 L 60.800 247.200 60.800 221.400 L 60.800 195.600 56.500 195.684 L 52.200 195.769 56.297 195.898 L 60.394 196.028 60.497 221.714 L 60.600 247.400 70.000 247.400 L 79.400 247.400 79.503 221.700 L 79.606 196.000 86.726 196.000 C 95.992 196.000,95.248 196.692,95.110 188.198 L 95.000 181.400 87.300 181.291 L 79.600 181.183 79.600 178.985 C 79.600 175.952,80.363 173.690,81.913 172.125 L 83.227 170.800 87.440 170.800 C 89.757 170.800,91.965 170.967,92.347 171.172 C 93.857 171.980,96.961 171.868,97.107 171.000 C 97.239 170.211,97.757 168.862,98.447 167.505 C 98.641 167.123,98.800 166.459,98.800 166.029 C 98.800 165.599,98.980 165.136,99.200 165.000 C 99.420 164.864,99.600 164.324,99.600 163.800 C 99.600 163.276,99.780 162.736,100.000 162.600 C 100.220 162.464,100.400 161.924,100.400 161.400 C 100.400 160.876,100.580 160.336,100.800 160.200 C 101.989 159.465,100.889 157.200,99.344 157.200 C 98.851 157.200,98.336 157.020,98.200 156.800 C 98.064 156.580,97.378 156.421,96.676 156.447 C 95.481 156.492,95.463 156.512,96.400 156.777 M291.505 174.283 C 292.002 174.379,292.722 174.375,293.105 174.275 C 293.487 174.175,293.080 174.096,292.200 174.101 C 291.320 174.105,291.007 174.187,291.505 174.283 M205.423 181.563 C 205.295 181.770,205.395 182.449,205.645 183.070 C 205.895 183.692,206.257 184.605,206.450 185.100 C 207.175 186.963,207.705 188.222,208.047 188.895 C 208.241 189.277,208.400 189.864,208.400 190.200 C 208.400 190.536,208.559 191.123,208.753 191.505 C 209.138 192.261,209.361 192.798,211.160 197.300 C 211.357 197.795,211.736 198.830,212.000 199.600 C 212.264 200.370,212.667 201.450,212.894 202.000 C 213.121 202.550,213.484 203.450,213.700 204.000 C 213.916 204.550,214.252 205.313,214.447 205.695 C 214.641 206.077,214.800 206.664,214.800 207.000 C 214.800 207.336,214.959 207.923,215.153 208.305 C 215.348 208.687,215.684 209.450,215.900 210.000 C 216.497 211.520,217.049 212.893,217.506 214.000 C 217.733 214.550,218.136 215.630,218.400 216.400 C 218.664 217.170,219.043 218.205,219.240 218.700 C 220.165 221.015,220.520 221.851,220.847 222.495 C 221.041 222.877,221.200 223.464,221.200 223.800 C 221.200 224.136,221.359 224.723,221.553 225.105 C 221.938 225.861,222.161 226.398,223.960 230.900 C 224.157 231.395,224.536 232.430,224.800 233.200 C 225.064 233.970,225.467 235.050,225.694 235.600 C 225.921 236.150,226.284 237.050,226.500 237.600 C 226.716 238.150,227.052 238.913,227.247 239.295 C 227.441 239.677,227.600 240.264,227.600 240.600 C 227.600 240.936,227.759 241.523,227.953 241.905 C 228.148 242.287,228.489 243.050,228.713 243.600 C 228.936 244.150,229.415 245.275,229.778 246.100 L 230.438 247.600 239.973 247.600 L 249.508 247.600 250.154 246.614 C 250.509 246.072,250.800 245.349,250.800 245.009 C 250.800 244.668,250.959 244.077,251.153 243.695 C 251.348 243.313,251.708 242.505,251.953 241.900 C 252.199 241.295,252.601 240.305,252.847 239.700 C 253.092 239.095,253.452 238.287,253.647 237.905 C 253.841 237.523,254.000 236.936,254.000 236.600 C 254.000 236.264,254.159 235.677,254.353 235.295 C 254.717 234.579,255.411 232.954,256.100 231.200 C 256.316 230.650,256.652 229.887,256.847 229.505 C 257.041 229.123,257.200 228.536,257.200 228.200 C 257.200 227.864,257.359 227.277,257.553 226.895 C 257.748 226.513,258.108 225.705,258.353 225.100 C 258.599 224.495,259.001 223.505,259.247 222.900 C 259.492 222.295,259.852 221.487,260.047 221.105 C 260.241 220.723,260.400 220.136,260.400 219.800 C 260.400 219.464,260.559 218.877,260.753 218.495 C 261.117 217.779,261.811 216.154,262.500 214.400 C 262.716 213.850,263.052 213.087,263.247 212.705 C 263.441 212.323,263.600 211.736,263.600 211.400 C 263.600 211.064,263.759 210.477,263.953 210.095 C 264.148 209.713,264.508 208.905,264.753 208.300 C 264.999 207.695,265.401 206.705,265.647 206.100 C 265.892 205.495,266.252 204.687,266.447 204.305 C 266.641 203.923,266.800 203.336,266.800 203.000 C 266.800 202.664,266.959 202.077,267.153 201.695 C 267.348 201.313,267.708 200.505,267.953 199.900 C 268.199 199.295,268.601 198.305,268.847 197.700 C 269.092 197.095,269.452 196.287,269.647 195.905 C 269.841 195.523,270.000 194.936,270.000 194.600 C 270.000 194.264,270.159 193.677,270.353 193.295 C 270.738 192.539,270.961 192.002,272.760 187.500 C 272.957 187.005,273.336 185.970,273.600 185.200 C 273.864 184.430,274.264 183.412,274.488 182.938 C 275.268 181.284,274.801 181.200,264.822 181.200 L 255.292 181.200 254.646 182.186 C 254.291 182.728,254.000 183.528,254.000 183.962 C 254.000 184.397,253.820 184.864,253.600 185.000 C 253.380 185.136,253.200 185.676,253.200 186.200 C 253.200 186.724,253.020 187.264,252.800 187.400 C 252.580 187.536,252.400 188.076,252.400 188.600 C 252.400 189.124,252.220 189.664,252.000 189.800 C 251.780 189.936,251.600 190.476,251.600 191.000 C 251.600 191.524,251.420 192.064,251.200 192.200 C 250.980 192.336,250.800 192.876,250.800 193.400 C 250.800 193.924,250.620 194.464,250.400 194.600 C 250.180 194.736,250.000 195.276,250.000 195.800 C 250.000 196.324,249.820 196.864,249.600 197.000 C 249.380 197.136,249.200 197.676,249.200 198.200 C 249.200 198.724,249.020 199.264,248.800 199.400 C 248.580 199.536,248.400 200.076,248.400 200.600 C 248.400 201.124,248.220 201.664,248.000 201.800 C 247.780 201.936,247.600 202.476,247.600 203.000 C 247.600 203.524,247.420 204.064,247.200 204.200 C 246.980 204.336,246.800 204.799,246.800 205.229 C 246.800 205.659,246.620 206.368,246.400 206.805 C 246.180 207.242,245.820 207.958,245.600 208.395 C 245.380 208.832,245.200 209.541,245.200 209.971 C 245.200 210.401,245.020 210.864,244.800 211.000 C 244.580 211.136,244.400 211.676,244.400 212.200 C 244.400 212.724,244.220 213.264,244.000 213.400 C 243.780 213.536,243.600 214.076,243.600 214.600 C 243.600 215.124,243.420 215.664,243.200 215.800 C 242.980 215.936,242.800 216.476,242.800 217.000 C 242.800 217.524,242.620 218.064,242.400 218.200 C 242.180 218.336,242.000 218.966,242.000 219.600 C 242.000 220.234,241.820 220.864,241.600 221.000 C 241.380 221.136,241.200 221.856,241.200 222.600 C 241.200 223.344,241.020 224.064,240.800 224.200 C 240.580 224.336,240.400 225.193,240.400 226.104 C 240.400 228.129,239.775 227.663,239.456 225.400 C 238.969 221.942,238.696 220.783,238.313 220.546 C 238.080 220.402,237.998 220.612,238.114 221.050 C 238.585 222.816,239.176 225.507,239.395 226.886 C 239.692 228.755,240.308 229.180,240.598 227.716 C 241.825 221.519,241.956 221.044,244.676 213.000 C 245.865 209.480,248.547 201.470,250.635 195.200 C 252.722 188.930,254.625 183.305,254.864 182.700 L 255.297 181.600 264.699 181.600 L 274.100 181.600 273.846 182.900 C 273.707 183.615,272.676 186.540,271.557 189.400 C 270.437 192.260,268.982 196.040,268.322 197.800 C 267.663 199.560,266.978 201.360,266.799 201.800 C 266.365 202.873,263.412 210.622,261.922 214.600 C 261.263 216.360,260.578 218.160,260.399 218.600 C 260.096 219.348,259.073 222.026,255.240 232.100 C 254.382 234.355,252.925 238.180,252.001 240.600 C 251.078 243.020,250.138 245.495,249.913 246.100 L 249.503 247.200 240.051 247.199 L 230.600 247.197 229.265 243.699 C 228.530 241.774,227.207 238.310,226.324 236.000 C 225.442 233.690,224.036 230.000,223.200 227.800 C 222.364 225.600,220.924 221.820,220.000 219.400 C 219.076 216.980,217.636 213.200,216.800 211.000 C 215.964 208.800,214.524 205.020,213.600 202.600 C 212.676 200.180,211.235 196.400,210.399 194.200 C 209.563 192.000,208.231 188.534,207.439 186.497 C 205.340 181.096,204.523 181.600,215.371 181.600 L 224.743 181.600 225.586 183.853 C 226.049 185.092,227.766 190.087,229.400 194.953 C 235.933 214.400,237.976 220.152,237.988 219.124 C 237.995 218.532,237.820 217.936,237.600 217.800 C 237.380 217.664,237.200 217.124,237.200 216.600 C 237.200 216.076,237.020 215.536,236.800 215.400 C 236.580 215.264,236.400 214.724,236.400 214.200 C 236.400 213.676,236.220 213.136,236.000 213.000 C 235.780 212.864,235.600 212.349,235.600 211.856 C 235.600 211.363,235.452 210.789,235.272 210.580 C 235.092 210.371,234.519 208.850,234.000 207.200 C 233.481 205.550,232.908 204.029,232.728 203.820 C 232.548 203.611,232.400 203.037,232.400 202.544 C 232.400 202.051,232.220 201.536,232.000 201.400 C 231.780 201.264,231.600 200.724,231.600 200.200 C 231.600 199.676,231.420 199.136,231.200 199.000 C 230.980 198.864,230.800 198.324,230.800 197.800 C 230.800 197.276,230.620 196.736,230.400 196.600 C 230.180 196.464,230.000 195.924,230.000 195.400 C 230.000 194.876,229.820 194.336,229.600 194.200 C 229.380 194.064,229.200 193.524,229.200 193.000 C 229.200 192.476,229.020 191.936,228.800 191.800 C 228.580 191.664,228.400 191.124,228.400 190.600 C 228.400 190.076,228.220 189.536,228.000 189.400 C 227.780 189.264,227.600 188.724,227.600 188.200 C 227.600 187.676,227.420 187.136,227.200 187.000 C 226.980 186.864,226.800 186.401,226.800 185.971 C 226.800 185.184,226.650 184.800,225.486 182.600 L 224.851 181.400 215.253 181.293 C 209.551 181.229,205.561 181.339,205.423 181.563 M282.987 181.693 C 282.880 181.972,282.840 196.870,282.897 214.800 L 283.000 247.400 292.400 247.400 L 301.800 247.400 301.800 214.400 L 301.800 181.400 292.490 181.293 C 285.259 181.209,283.137 181.299,282.987 181.693 M315.070 181.464 C 314.565 181.969,314.760 195.400,315.280 195.920 C 315.634 196.274,319.264 196.400,329.126 196.400 L 342.492 196.400 341.819 197.426 C 341.450 197.991,340.900 198.756,340.599 199.126 C 339.473 200.511,332.458 209.972,331.172 211.841 C 330.437 212.908,329.615 214.056,329.344 214.391 C 328.266 215.723,323.696 221.916,322.406 223.791 C 321.653 224.886,320.812 226.056,320.538 226.391 C 320.263 226.726,318.499 229.070,316.618 231.600 L 313.197 236.200 313.299 241.800 L 313.400 247.400 339.600 247.400 L 365.800 247.400 365.909 240.300 L 366.018 233.200 365.109 233.246 C 364.432 233.281,364.378 233.339,364.900 233.476 C 365.532 233.641,365.600 234.317,365.600 240.429 L 365.600 247.200 339.600 247.200 L 313.600 247.200 313.600 241.804 L 313.600 236.409 315.327 234.104 C 316.277 232.837,318.044 230.450,319.254 228.800 C 320.463 227.150,323.248 223.370,325.442 220.400 C 327.637 217.430,330.595 213.407,332.016 211.461 C 333.437 209.514,336.525 205.284,338.877 202.061 L 343.154 196.200 329.596 196.000 C 320.715 195.869,315.891 195.652,315.609 195.370 C 315.328 195.089,315.218 192.662,315.290 188.370 L 315.400 181.800 340.000 181.800 L 364.600 181.800 364.699 187.600 L 364.797 193.400 361.397 198.000 C 359.527 200.530,356.612 204.490,354.919 206.800 C 353.226 209.110,350.584 212.710,349.047 214.800 C 345.353 219.824,340.180 226.880,336.510 231.900 C 335.987 232.615,335.710 233.200,335.893 233.200 C 336.077 233.200,336.525 232.705,336.889 232.100 C 337.253 231.495,337.908 230.550,338.346 230.000 C 339.851 228.107,344.227 222.196,345.594 220.209 C 346.347 219.114,347.185 217.944,347.456 217.609 C 348.534 216.277,353.104 210.084,354.394 208.209 C 355.147 207.114,355.985 205.944,356.256 205.609 C 357.277 204.347,361.882 198.106,363.519 195.767 L 365.222 193.334 365.111 187.367 L 365.000 181.400 340.170 181.297 C 326.513 181.240,315.218 181.315,315.070 181.464 M301.502 214.500 L 301.605 247.200 292.402 247.200 L 283.200 247.200 283.200 214.392 L 283.200 181.585 292.300 181.692 L 301.400 181.800 301.502 214.500 M168.107 182.900 C 167.778 183.321,165.010 188.072,155.799 204.024 C 152.898 209.047,152.138 213.192,153.373 217.259 C 158.810 235.175,185.485 231.379,184.705 212.800 L 184.563 209.400 184.481 213.276 C 184.437 215.408,184.220 217.264,184.000 217.400 C 183.780 217.536,183.598 218.042,183.596 218.524 C 183.586 220.511,178.727 225.708,175.622 227.052 C 174.840 227.390,173.887 227.832,173.505 228.034 C 172.562 228.531,164.911 228.502,164.600 228.000 C 164.464 227.780,164.020 227.600,163.614 227.600 C 160.384 227.600,155.374 222.152,153.656 216.772 C 153.094 215.010,153.055 210.537,153.600 210.200 C 153.820 210.064,154.000 209.601,154.000 209.171 C 154.000 208.741,154.180 208.032,154.400 207.595 C 155.326 205.756,155.715 205.019,156.438 203.745 C 156.857 203.005,157.579 201.725,158.043 200.900 C 158.506 200.075,159.027 199.220,159.200 199.000 C 159.373 198.780,159.894 197.925,160.357 197.100 C 160.821 196.275,161.560 194.970,162.000 194.200 C 162.440 193.430,163.160 192.170,163.600 191.400 C 164.040 190.630,164.760 189.370,165.200 188.600 C 165.640 187.830,166.376 186.525,166.835 185.700 C 168.317 183.040,168.541 182.969,169.734 184.772 C 170.320 185.658,170.800 186.485,170.800 186.609 C 170.800 186.734,171.700 188.170,172.800 189.800 C 173.900 191.430,174.800 192.872,174.800 193.004 C 174.800 193.136,175.520 194.304,176.400 195.600 C 177.280 196.896,178.000 198.146,178.000 198.378 C 178.000 198.610,178.180 198.800,178.400 198.800 C 178.620 198.800,178.800 198.997,178.800 199.238 C 178.800 199.479,179.139 200.154,179.553 200.738 C 180.915 202.658,183.303 207.080,183.776 208.557 C 183.910 208.974,184.123 209.210,184.250 209.083 C 184.654 208.680,182.636 204.782,179.136 199.200 C 177.274 196.230,174.169 191.235,172.238 188.100 C 170.306 184.965,168.674 182.400,168.612 182.400 C 168.549 182.400,168.322 182.625,168.107 182.900 M203.020 205.066 C 203.158 205.690,203.471 206.830,203.714 207.600 C 204.389 209.736,204.239 220.155,203.496 222.800 C 200.243 234.374,194.153 241.867,184.011 246.771 C 182.158 247.667,180.923 248.400,181.266 248.400 C 182.454 248.400,188.311 245.164,191.391 242.806 C 193.807 240.956,198.796 235.362,198.799 234.500 C 198.799 234.225,198.935 233.999,199.100 233.997 C 199.265 233.995,199.598 233.590,199.840 233.097 C 200.083 232.604,200.690 231.390,201.190 230.400 C 201.691 229.410,202.258 228.287,202.450 227.905 C 202.643 227.523,202.800 226.859,202.800 226.429 C 202.800 225.999,202.960 225.548,203.156 225.427 C 204.475 224.612,205.203 207.743,203.952 206.970 C 203.758 206.851,203.600 206.234,203.600 205.600 C 203.600 204.966,203.413 204.332,203.184 204.190 C 202.913 204.023,202.856 204.328,203.020 205.066 M131.765 209.347 C 131.192 210.841,132.107 223.803,132.841 224.580 C 133.038 224.789,133.200 225.286,133.200 225.685 C 133.200 226.084,133.364 226.723,133.565 227.105 C 133.765 227.487,134.594 229.200,135.405 230.912 C 136.217 232.624,137.094 234.244,137.354 234.512 C 137.614 234.780,138.253 235.630,138.775 236.400 C 140.901 239.539,149.538 246.800,151.144 246.800 C 151.471 246.800,152.928 247.456,155.695 248.850 C 156.077 249.043,156.716 249.200,157.115 249.200 C 157.514 249.200,158.011 249.362,158.220 249.559 C 159.075 250.367,173.325 251.234,174.040 250.521 C 174.217 250.345,172.256 250.263,169.681 250.341 C 148.211 250.988,131.435 234.642,132.055 213.681 C 132.199 208.823,132.165 208.305,131.765 209.347 M178.800 248.857 C 178.250 249.080,177.080 249.409,176.200 249.588 C 174.789 249.874,174.742 249.917,175.800 249.950 C 176.988 249.988,179.730 249.203,180.259 248.674 C 180.641 248.293,179.988 248.374,178.800 248.857 " stroke="none" fill="#4cbcfc" fill-rule="evenodd"></path></g></svg>